# MagicaVoxel @ Ephtracy

# group
g build

# material
mtllib build.mtl
usemtl palette

# normals
vn -1 0 0
vn 1 0 0
vn 0 0 1
vn 0 0 -1
vn 0 -1 0
vn 0 1 0

# texcoords
vt 0.427734 0.5
vt 0.931641 0.5

# verts
v -20 0 20
v -20 0 -20
v -20 23 20
v -20 23 -20
v -18 23 18
v -18 23 -18
v -18 24 18
v -18 24 -18
v -16 24 16
v -16 24 -16
v -16 30 11
v -16 30 -11
v -16 31 11
v -16 31 -11
v -16 40 11
v -16 40 -11
v -16 41 11
v -16 41 -11
v -16 50 11
v -16 50 -11
v -16 51 11
v -16 51 -11
v -16 60 11
v -16 60 -11
v -16 61 11
v -16 61 -11
v -16 70 11
v -16 70 -11
v -16 71 11
v -16 71 -11
v -16 78 16
v -16 78 -16
v -16 79 16
v -16 79 -16
v 16 24 16
v 16 24 -16
v 16 30 11
v 16 30 -11
v 16 31 11
v 16 31 -11
v 16 40 11
v 16 40 -11
v 16 41 11
v 16 41 -11
v 16 50 11
v 16 50 -11
v 16 51 11
v 16 51 -11
v 16 60 11
v 16 60 -11
v 16 61 11
v 16 61 -11
v 16 70 11
v 16 70 -11
v 16 71 11
v 16 71 -11
v 16 78 16
v 16 78 -16
v 16 79 16
v 16 79 -16
v 18 23 18
v 18 23 -18
v 18 24 18
v 18 24 -18
v 20 0 20
v 20 0 -20
v 20 23 20
v 20 23 -20
v -20 0 20
v -20 23 20
v 20 0 20
v 20 23 20
v -18 23 18
v -18 24 18
v 18 23 18
v 18 24 18
v -16 24 16
v -16 78 16
v -16 79 16
v -11 30 16
v -11 31 16
v -11 40 16
v -11 41 16
v -11 50 16
v -11 51 16
v -11 60 16
v -11 61 16
v -11 70 16
v -11 71 16
v 11 30 16
v 11 31 16
v 11 40 16
v 11 41 16
v 11 50 16
v 11 51 16
v 11 60 16
v 11 61 16
v 11 70 16
v 11 71 16
v 16 24 16
v 16 78 16
v 16 79 16
v -16 24 -16
v -16 78 -16
v -16 79 -16
v -11 30 -16
v -11 31 -16
v -11 40 -16
v -11 41 -16
v -11 50 -16
v -11 51 -16
v -11 60 -16
v -11 61 -16
v -11 70 -16
v -11 71 -16
v 11 30 -16
v 11 31 -16
v 11 40 -16
v 11 41 -16
v 11 50 -16
v 11 51 -16
v 11 60 -16
v 11 61 -16
v 11 70 -16
v 11 71 -16
v 16 24 -16
v 16 78 -16
v 16 79 -16
v -18 23 -18
v -18 24 -18
v 18 23 -18
v 18 24 -18
v -20 0 -20
v -20 23 -20
v 20 0 -20
v 20 23 -20
v -20 0 20
v 20 0 20
v -20 0 -20
v 20 0 -20
v -20 23 20
v 20 23 20
v -18 23 18
v 18 23 18
v -18 23 -18
v 18 23 -18
v -20 23 -20
v 20 23 -20
v -18 24 18
v 18 24 18
v -16 24 16
v 16 24 16
v -16 24 -16
v 16 24 -16
v -18 24 -18
v 18 24 -18
v -16 79 16
v 16 79 16
v -16 79 -16
v 16 79 -16

# faces
f 3/2/1 2/2/1 1/2/1
f 4/2/1 2/2/1 3/2/1
f 7/1/1 6/1/1 5/1/1
f 8/1/1 6/1/1 7/1/1
f 11/2/1 10/2/1 9/2/1
f 12/2/1 10/2/1 11/2/1
f 13/2/1 11/2/1 9/2/1
f 13/1/1 12/1/1 11/1/1
f 14/2/1 10/2/1 12/2/1
f 14/1/1 12/1/1 13/1/1
f 15/2/1 13/2/1 9/2/1
f 15/2/1 14/2/1 13/2/1
f 16/2/1 10/2/1 14/2/1
f 16/2/1 14/2/1 15/2/1
f 17/2/1 15/2/1 9/2/1
f 17/1/1 16/1/1 15/1/1
f 18/2/1 10/2/1 16/2/1
f 18/1/1 16/1/1 17/1/1
f 19/2/1 17/2/1 9/2/1
f 19/2/1 18/2/1 17/2/1
f 20/2/1 10/2/1 18/2/1
f 20/2/1 18/2/1 19/2/1
f 21/2/1 19/2/1 9/2/1
f 21/1/1 20/1/1 19/1/1
f 22/2/1 10/2/1 20/2/1
f 22/1/1 20/1/1 21/1/1
f 23/2/1 21/2/1 9/2/1
f 23/2/1 22/2/1 21/2/1
f 24/2/1 10/2/1 22/2/1
f 24/2/1 22/2/1 23/2/1
f 25/2/1 23/2/1 9/2/1
f 25/1/1 24/1/1 23/1/1
f 26/2/1 10/2/1 24/2/1
f 26/1/1 24/1/1 25/1/1
f 27/2/1 25/2/1 9/2/1
f 27/2/1 26/2/1 25/2/1
f 28/2/1 10/2/1 26/2/1
f 28/2/1 26/2/1 27/2/1
f 29/2/1 27/2/1 9/2/1
f 29/1/1 28/1/1 27/1/1
f 30/2/1 10/2/1 28/2/1
f 30/1/1 28/1/1 29/1/1
f 31/2/1 29/2/1 9/2/1
f 31/2/1 30/2/1 29/2/1
f 32/2/1 10/2/1 30/2/1
f 32/2/1 30/2/1 31/2/1
f 33/1/1 32/1/1 31/1/1
f 34/1/1 32/1/1 33/1/1
f 35/2/2 36/2/2 37/2/2
f 37/2/2 36/2/2 38/2/2
f 35/2/2 37/2/2 39/2/2
f 37/1/2 38/1/2 39/1/2
f 38/2/2 36/2/2 40/2/2
f 39/1/2 38/1/2 40/1/2
f 35/2/2 39/2/2 41/2/2
f 39/2/2 40/2/2 41/2/2
f 40/2/2 36/2/2 42/2/2
f 41/2/2 40/2/2 42/2/2
f 35/2/2 41/2/2 43/2/2
f 41/1/2 42/1/2 43/1/2
f 42/2/2 36/2/2 44/2/2
f 43/1/2 42/1/2 44/1/2
f 35/2/2 43/2/2 45/2/2
f 43/2/2 44/2/2 45/2/2
f 44/2/2 36/2/2 46/2/2
f 45/2/2 44/2/2 46/2/2
f 35/2/2 45/2/2 47/2/2
f 45/1/2 46/1/2 47/1/2
f 46/2/2 36/2/2 48/2/2
f 47/1/2 46/1/2 48/1/2
f 35/2/2 47/2/2 49/2/2
f 47/2/2 48/2/2 49/2/2
f 48/2/2 36/2/2 50/2/2
f 49/2/2 48/2/2 50/2/2
f 35/2/2 49/2/2 51/2/2
f 49/1/2 50/1/2 51/1/2
f 50/2/2 36/2/2 52/2/2
f 51/1/2 50/1/2 52/1/2
f 35/2/2 51/2/2 53/2/2
f 51/2/2 52/2/2 53/2/2
f 52/2/2 36/2/2 54/2/2
f 53/2/2 52/2/2 54/2/2
f 35/2/2 53/2/2 55/2/2
f 53/1/2 54/1/2 55/1/2
f 54/2/2 36/2/2 56/2/2
f 55/1/2 54/1/2 56/1/2
f 35/2/2 55/2/2 57/2/2
f 55/2/2 56/2/2 57/2/2
f 56/2/2 36/2/2 58/2/2
f 57/2/2 56/2/2 58/2/2
f 57/1/2 58/1/2 59/1/2
f 59/1/2 58/1/2 60/1/2
f 61/1/2 62/1/2 63/1/2
f 63/1/2 62/1/2 64/1/2
f 65/2/2 66/2/2 67/2/2
f 67/2/2 66/2/2 68/2/2
f 71/2/3 70/2/3 69/2/3
f 72/2/3 70/2/3 71/2/3
f 75/1/3 74/1/3 73/1/3
f 76/1/3 74/1/3 75/1/3
f 80/2/3 78/2/3 77/2/3
f 81/2/3 78/2/3 80/2/3
f 82/2/3 78/2/3 81/2/3
f 83/2/3 78/2/3 82/2/3
f 84/2/3 78/2/3 83/2/3
f 85/2/3 78/2/3 84/2/3
f 86/2/3 78/2/3 85/2/3
f 87/2/3 78/2/3 86/2/3
f 88/2/3 78/2/3 87/2/3
f 89/2/3 78/2/3 88/2/3
f 90/2/3 80/2/3 77/2/3
f 90/1/3 81/1/3 80/1/3
f 91/2/3 82/2/3 81/2/3
f 91/1/3 81/1/3 90/1/3
f 92/1/3 83/1/3 82/1/3
f 92/2/3 82/2/3 91/2/3
f 93/2/3 84/2/3 83/2/3
f 93/1/3 83/1/3 92/1/3
f 94/1/3 85/1/3 84/1/3
f 94/2/3 84/2/3 93/2/3
f 95/2/3 86/2/3 85/2/3
f 95/1/3 85/1/3 94/1/3
f 96/1/3 87/1/3 86/1/3
f 96/2/3 86/2/3 95/2/3
f 97/2/3 88/2/3 87/2/3
f 97/1/3 87/1/3 96/1/3
f 98/1/3 89/1/3 88/1/3
f 98/2/3 88/2/3 97/2/3
f 99/2/3 78/2/3 89/2/3
f 99/1/3 89/1/3 98/1/3
f 100/2/3 98/2/3 97/2/3
f 100/2/3 97/2/3 96/2/3
f 100/2/3 99/2/3 98/2/3
f 100/2/3 96/2/3 95/2/3
f 100/2/3 95/2/3 94/2/3
f 100/2/3 94/2/3 93/2/3
f 100/2/3 93/2/3 92/2/3
f 100/2/3 92/2/3 91/2/3
f 100/2/3 91/2/3 90/2/3
f 100/2/3 90/2/3 77/2/3
f 101/1/3 79/1/3 78/1/3
f 101/2/3 99/2/3 100/2/3
f 101/2/3 78/2/3 99/2/3
f 102/1/3 79/1/3 101/1/3
f 103/2/4 104/2/4 106/2/4
f 106/2/4 104/2/4 107/2/4
f 107/2/4 104/2/4 108/2/4
f 108/2/4 104/2/4 109/2/4
f 109/2/4 104/2/4 110/2/4
f 110/2/4 104/2/4 111/2/4
f 111/2/4 104/2/4 112/2/4
f 112/2/4 104/2/4 113/2/4
f 113/2/4 104/2/4 114/2/4
f 114/2/4 104/2/4 115/2/4
f 103/2/4 106/2/4 116/2/4
f 106/1/4 107/1/4 116/1/4
f 107/2/4 108/2/4 117/2/4
f 116/1/4 107/1/4 117/1/4
f 108/1/4 109/1/4 118/1/4
f 117/2/4 108/2/4 118/2/4
f 109/2/4 110/2/4 119/2/4
f 118/1/4 109/1/4 119/1/4
f 110/1/4 111/1/4 120/1/4
f 119/2/4 110/2/4 120/2/4
f 111/2/4 112/2/4 121/2/4
f 120/1/4 111/1/4 121/1/4
f 112/1/4 113/1/4 122/1/4
f 121/2/4 112/2/4 122/2/4
f 113/2/4 114/2/4 123/2/4
f 122/1/4 113/1/4 123/1/4
f 114/1/4 115/1/4 124/1/4
f 123/2/4 114/2/4 124/2/4
f 115/2/4 104/2/4 125/2/4
f 124/1/4 115/1/4 125/1/4
f 123/2/4 124/2/4 126/2/4
f 122/2/4 123/2/4 126/2/4
f 124/2/4 125/2/4 126/2/4
f 121/2/4 122/2/4 126/2/4
f 120/2/4 121/2/4 126/2/4
f 119/2/4 120/2/4 126/2/4
f 118/2/4 119/2/4 126/2/4
f 117/2/4 118/2/4 126/2/4
f 116/2/4 117/2/4 126/2/4
f 103/2/4 116/2/4 126/2/4
f 104/1/4 105/1/4 127/1/4
f 126/2/4 125/2/4 127/2/4
f 125/2/4 104/2/4 127/2/4
f 127/1/4 105/1/4 128/1/4
f 129/1/4 130/1/4 131/1/4
f 131/1/4 130/1/4 132/1/4
f 133/2/4 134/2/4 135/2/4
f 135/2/4 134/2/4 136/2/4
f 139/2/5 138/2/5 137/2/5
f 140/2/5 138/2/5 139/2/5
f 141/2/6 142/2/6 143/2/6
f 143/2/6 142/2/6 144/2/6
f 141/2/6 143/2/6 145/2/6
f 144/2/6 142/2/6 146/2/6
f 141/2/6 145/2/6 147/2/6
f 145/2/6 146/2/6 147/2/6
f 146/2/6 142/2/6 148/2/6
f 147/2/6 146/2/6 148/2/6
f 149/1/6 150/1/6 151/1/6
f 151/1/6 150/1/6 152/1/6
f 149/1/6 151/1/6 153/1/6
f 152/1/6 150/1/6 154/1/6
f 149/1/6 153/1/6 155/1/6
f 153/1/6 154/1/6 155/1/6
f 154/1/6 150/1/6 156/1/6
f 155/1/6 154/1/6 156/1/6
f 157/1/6 158/1/6 159/1/6
f 159/1/6 158/1/6 160/1/6
