# MagicaVoxel @ Ephtracy

# group
g cityBlock

# material
mtllib cityBlock.mtl
usemtl palette

# normals
vn -1 0 0
vn 1 0 0
vn 0 0 1
vn 0 0 -1
vn 0 -1 0
vn 0 1 0

# texcoords
vt 0.962891 0.5
vt 0.970703 0.5
vt 0.982422 0.5

# verts
v -20 0 20
v -20 0 -20
v -20 18 19
v -20 18 -0
v -20 19 20
v -20 19 19
v -20 19 -0
v -20 19 -20
v -19 18 19
v -19 18 1
v -19 19 20
v -19 19 19
v -19 19 1
v -19 19 -0
v -19 19 -1
v -19 19 -19
v -19 20 20
v -19 20 19
v -19 20 1
v -19 20 -0
v -19 20 -1
v -19 20 -19
v -1 18 1
v -1 18 -0
v -1 19 1
v -1 19 -0
v 1 19 20
v 1 19 19
v 1 19 1
v 1 19 -0
v 1 19 -1
v 1 19 -19
v 1 20 20
v 1 20 19
v 1 20 1
v 1 20 -0
v 1 20 -1
v 1 20 -19
v 0 19 20
v 0 19 1
v 0 19 -0
v 0 19 -19
v 0 20 20
v 0 20 1
v 0 20 -0
v 0 20 -19
v 20 0 20
v 20 0 -20
v 20 19 20
v 20 19 1
v 20 19 -0
v 20 19 -19
v 20 19 -20
v 20 20 20
v 20 20 1
v 20 20 -0
v 20 20 -19
v -20 0 20
v -20 19 20
v -19 19 20
v -19 20 20
v 0 19 20
v 0 20 20
v 1 19 20
v 1 20 20
v 20 0 20
v 20 19 20
v 20 20 20
v -20 18 -0
v -20 19 -0
v -19 19 -0
v -19 20 -0
v -1 18 -0
v -1 19 -0
v 0 19 -0
v 0 20 -0
v 1 19 -0
v 1 20 -0
v 20 19 -0
v 20 20 -0
v -20 18 19
v -20 19 19
v -19 18 19
v -19 19 19
v -19 18 1
v -19 19 1
v -19 20 1
v -1 18 1
v -1 19 1
v -1 20 1
v 0 19 1
v 0 20 1
v 1 19 1
v 1 20 1
v 19 19 1
v 19 20 1
v 20 19 1
v 20 20 1
v -19 19 -19
v -19 20 -19
v -1 19 -19
v -1 20 -19
v 0 19 -19
v 0 20 -19
v 1 19 -19
v 1 20 -19
v 19 19 -19
v 19 20 -19
v 20 19 -19
v 20 20 -19
v -20 0 -20
v -20 19 -20
v 20 0 -20
v 20 19 -20
v -20 0 20
v 20 0 20
v -20 0 -20
v 20 0 -20
v -20 18 19
v -19 18 19
v -19 18 1
v -1 18 1
v -20 18 -0
v -1 18 -0
v -20 19 20
v -19 19 20
v 0 19 20
v 1 19 20
v -20 19 19
v -19 19 19
v 1 19 19
v -1 19 1
v 0 19 1
v 1 19 1
v 19 19 1
v 20 19 1
v -20 19 -0
v -19 19 -0
v -1 19 -0
v 0 19 -0
v 1 19 -0
v 20 19 -0
v -19 19 -1
v 1 19 -1
v -19 19 -19
v -1 19 -19
v 0 19 -19
v 1 19 -19
v 19 19 -19
v 20 19 -19
v -20 19 -20
v 20 19 -20
v -19 20 20
v 0 20 20
v 1 20 20
v 20 20 20
v -19 20 19
v -1 20 19
v 1 20 19
v 19 20 19
v -19 20 1
v -1 20 1
v 0 20 1
v 1 20 1
v 19 20 1
v 20 20 1
v -19 20 -0
v 0 20 -0
v 1 20 -0
v 20 20 -0
v -19 20 -1
v -1 20 -1
v 1 20 -1
v 19 20 -1
v -19 20 -19
v -1 20 -19
v 0 20 -19
v 1 20 -19
v 19 20 -19
v 20 20 -19

# faces
f 3/3/1 2/3/1 1/3/1
f 4/3/1 2/3/1 3/3/1
f 5/3/1 3/3/1 1/3/1
f 6/3/1 3/3/1 5/3/1
f 7/3/1 2/3/1 4/3/1
f 8/3/1 2/3/1 7/3/1
f 12/3/1 10/3/1 9/3/1
f 13/3/1 10/3/1 12/3/1
f 17/1/1 12/1/1 11/1/1
f 18/2/1 13/2/1 12/2/1
f 18/1/1 12/1/1 17/1/1
f 19/2/1 13/2/1 18/2/1
f 20/1/1 15/1/1 14/1/1
f 21/2/1 16/2/1 15/2/1
f 21/1/1 15/1/1 20/1/1
f 22/2/1 16/2/1 21/2/1
f 25/3/1 24/3/1 23/3/1
f 26/3/1 24/3/1 25/3/1
f 33/1/1 28/1/1 27/1/1
f 34/2/1 29/2/1 28/2/1
f 34/1/1 28/1/1 33/1/1
f 35/2/1 29/2/1 34/2/1
f 36/1/1 31/1/1 30/1/1
f 37/2/1 32/2/1 31/2/1
f 37/1/1 31/1/1 36/1/1
f 38/2/1 32/2/1 37/2/1
f 39/1/2 40/1/2 43/1/2
f 43/1/2 40/1/2 44/1/2
f 41/1/2 42/1/2 45/1/2
f 45/1/2 42/1/2 46/1/2
f 47/3/2 48/3/2 49/3/2
f 49/3/2 48/3/2 50/3/2
f 50/3/2 48/3/2 51/3/2
f 51/3/2 48/3/2 52/3/2
f 52/3/2 48/3/2 53/3/2
f 49/1/2 50/1/2 54/1/2
f 54/1/2 50/1/2 55/1/2
f 51/1/2 52/1/2 56/1/2
f 56/1/2 52/1/2 57/1/2
f 60/3/3 59/3/3 58/3/3
f 62/3/3 60/3/3 58/3/3
f 62/1/3 61/1/3 60/1/3
f 63/1/3 61/1/3 62/1/3
f 64/3/3 62/3/3 58/3/3
f 66/3/3 64/3/3 58/3/3
f 67/1/3 65/1/3 64/1/3
f 67/3/3 64/3/3 66/3/3
f 68/1/3 65/1/3 67/1/3
f 71/3/3 70/3/3 69/3/3
f 73/3/3 71/3/3 69/3/3
f 74/1/3 72/1/3 71/1/3
f 74/3/3 71/3/3 73/3/3
f 75/1/3 72/1/3 74/1/3
f 76/1/3 72/1/3 75/1/3
f 79/1/3 78/1/3 77/1/3
f 80/1/3 78/1/3 79/1/3
f 81/3/4 82/3/4 83/3/4
f 83/3/4 82/3/4 84/3/4
f 85/3/4 86/3/4 88/3/4
f 86/2/4 87/2/4 89/2/4
f 88/3/4 86/3/4 89/3/4
f 89/2/4 87/2/4 90/2/4
f 89/1/4 90/1/4 91/1/4
f 91/1/4 90/1/4 92/1/4
f 93/2/4 94/2/4 95/2/4
f 95/2/4 94/2/4 96/2/4
f 95/1/4 96/1/4 97/1/4
f 97/1/4 96/1/4 98/1/4
f 99/2/4 100/2/4 101/2/4
f 101/2/4 100/2/4 102/2/4
f 101/1/4 102/1/4 103/1/4
f 103/1/4 102/1/4 104/1/4
f 105/2/4 106/2/4 107/2/4
f 107/2/4 106/2/4 108/2/4
f 107/1/4 108/1/4 109/1/4
f 109/1/4 108/1/4 110/1/4
f 111/3/4 112/3/4 113/3/4
f 113/3/4 112/3/4 114/3/4
f 117/3/5 116/3/5 115/3/5
f 118/3/5 116/3/5 117/3/5
f 119/3/6 120/3/6 121/3/6
f 119/3/6 121/3/6 123/3/6
f 121/3/6 122/3/6 123/3/6
f 123/3/6 122/3/6 124/3/6
f 125/3/6 126/3/6 129/3/6
f 129/3/6 126/3/6 130/3/6
f 127/3/6 128/3/6 131/3/6
f 127/3/6 131/3/6 133/3/6
f 133/3/6 131/3/6 134/3/6
f 133/3/6 134/3/6 139/3/6
f 132/3/6 133/3/6 139/3/6
f 135/3/6 136/3/6 139/3/6
f 134/3/6 135/3/6 139/3/6
f 139/3/6 136/3/6 140/3/6
f 140/3/6 136/3/6 141/3/6
f 141/3/6 136/3/6 142/3/6
f 137/3/6 138/3/6 143/3/6
f 140/3/6 141/3/6 144/3/6
f 137/3/6 143/3/6 145/3/6
f 140/3/6 144/3/6 147/3/6
f 147/3/6 144/3/6 148/3/6
f 147/3/6 148/3/6 151/3/6
f 149/3/6 150/3/6 151/3/6
f 148/3/6 149/3/6 151/3/6
f 146/3/6 147/3/6 151/3/6
f 145/3/6 146/3/6 151/3/6
f 137/3/6 145/3/6 151/3/6
f 151/3/6 150/3/6 152/3/6
f 153/1/6 154/1/6 157/1/6
f 157/1/6 154/1/6 158/1/6
f 155/1/6 156/1/6 159/1/6
f 159/1/6 156/1/6 160/1/6
f 157/2/6 158/2/6 161/2/6
f 158/1/6 154/1/6 162/1/6
f 161/2/6 158/2/6 162/2/6
f 162/1/6 154/1/6 163/1/6
f 159/2/6 160/2/6 164/2/6
f 160/1/6 156/1/6 165/1/6
f 164/2/6 160/2/6 165/2/6
f 165/1/6 156/1/6 166/1/6
f 167/1/6 168/1/6 171/1/6
f 171/1/6 168/1/6 172/1/6
f 169/1/6 170/1/6 173/1/6
f 173/1/6 170/1/6 174/1/6
f 171/2/6 172/2/6 175/2/6
f 172/1/6 168/1/6 176/1/6
f 175/2/6 172/2/6 176/2/6
f 176/1/6 168/1/6 177/1/6
f 173/2/6 174/2/6 178/2/6
f 174/1/6 170/1/6 179/1/6
f 178/2/6 174/2/6 179/2/6
f 179/1/6 170/1/6 180/1/6
