# MagicaVoxel @ Ephtracy

# group
g desertrock1

# material
mtllib desertrock1.mtl
usemtl palette

# normals
vn -1 0 0
vn 1 0 0
vn 0 0 1
vn 0 0 -1
vn 0 -1 0
vn 0 1 0

# texcoords
vt 0.220703 0.5
vt 0.244141 0.5

# verts
v -10 0 -0
v -10 0 -7
v -10 2 7
v -10 2 3
v -10 4 7
v -10 4 3
v -10 7 8
v -10 7 -0
v -10 8 -0
v -10 8 -7
v -10 12 8
v -10 12 -0
v -9 0 9
v -9 0 -0
v -9 2 7
v -9 2 3
v -9 4 7
v -9 4 3
v -9 7 8
v -9 7 -0
v -9 8 -0
v -9 8 -7
v -9 9 10
v -9 9 9
v -9 10 -0
v -9 10 -4
v -9 12 10
v -9 12 9
v -9 12 8
v -9 12 -0
v -9 13 9
v -9 13 8
v -9 13 -4
v -9 13 -7
v -9 14 8
v -9 14 -4
v -8 3 -7
v -8 3 -10
v -8 7 -7
v -8 7 -10
v -5 0 -7
v -5 0 -9
v -5 3 -7
v -5 3 -9
v -5 4 10
v -5 4 9
v -5 7 -7
v -5 7 -9
v -5 8 10
v -5 8 9
v -5 13 -5
v -5 13 -7
v -5 14 -5
v -5 14 -9
v -2 14 3
v -2 14 -4
v -2 15 3
v -2 15 -4
v 0 3 10
v 0 3 9
v 0 9 10
v 0 9 9
v -6 9 10
v -6 9 9
v -6 12 10
v -6 12 9
v -3 4 10
v -3 4 9
v -3 8 10
v -3 8 9
v 0 13 8
v 0 13 3
v 0 14 8
v 0 14 3
v 1 3 -9
v 1 3 -10
v 1 7 -9
v 1 7 -10
v 5 0 -7
v 5 0 -9
v 5 13 3
v 5 13 -4
v 5 13 -5
v 5 13 -7
v 5 14 -5
v 5 14 -9
v 5 15 3
v 5 15 -4
v 6 0 9
v 6 0 5
v 6 0 -2
v 6 0 -7
v 6 2 -2
v 6 2 -5
v 6 3 9
v 6 3 7
v 6 7 5
v 6 7 1
v 6 9 9
v 6 9 7
v 6 11 1
v 6 11 -5
v 6 13 9
v 6 13 -7
v 7 2 -2
v 7 2 -5
v 7 3 10
v 7 3 7
v 7 7 1
v 7 7 -2
v 7 9 10
v 7 9 7
v 7 11 1
v 7 11 -5
v 9 0 5
v 9 0 -2
v 9 7 5
v 9 7 -2
v -9 9 10
v -9 12 10
v -6 9 10
v -6 12 10
v -5 4 10
v -5 8 10
v -3 4 10
v -3 8 10
v 0 3 10
v 0 9 10
v 7 3 10
v 7 9 10
v -9 0 9
v -9 9 9
v -9 12 9
v -9 13 9
v -6 9 9
v -6 12 9
v -5 4 9
v -5 8 9
v -3 4 9
v -3 8 9
v 0 3 9
v 0 9 9
v 6 0 9
v 6 3 9
v 6 9 9
v 6 13 9
v -10 7 8
v -10 12 8
v -9 7 8
v -9 12 8
v -9 13 8
v -9 14 8
v 0 13 8
v 0 14 8
v -10 2 7
v -10 4 7
v -9 2 7
v -9 4 7
v 6 0 5
v 6 7 5
v 9 0 5
v 9 7 5
v -2 14 3
v -2 15 3
v 0 13 3
v 0 14 3
v 5 13 3
v 5 15 3
v 6 7 1
v 6 11 1
v 7 7 1
v 7 11 1
v -10 0 -0
v -10 7 -0
v -9 0 -0
v -9 7 -0
v -5 13 -5
v -5 14 -5
v 5 13 -5
v 5 14 -5
v 6 3 7
v 6 9 7
v 7 3 7
v 7 9 7
v -10 2 3
v -10 4 3
v -9 2 3
v -9 4 3
v -10 8 -0
v -10 12 -0
v -9 8 -0
v -9 10 -0
v -9 12 -0
v 6 0 -2
v 6 2 -2
v 7 2 -2
v 7 7 -2
v 9 0 -2
v 9 7 -2
v -9 13 -4
v -9 14 -4
v -2 14 -4
v -2 15 -4
v 0 13 -4
v 0 14 -4
v 5 13 -4
v 5 15 -4
v 6 2 -5
v 6 11 -5
v 7 2 -5
v 7 11 -5
v -10 0 -7
v -10 8 -7
v -9 8 -7
v -9 13 -7
v -8 3 -7
v -8 7 -7
v -5 0 -7
v -5 3 -7
v -5 7 -7
v -5 13 -7
v 5 0 -7
v 5 13 -7
v 6 0 -7
v 6 13 -7
v -5 0 -9
v -5 3 -9
v -5 7 -9
v -5 14 -9
v 1 3 -9
v 1 7 -9
v 5 0 -9
v 5 14 -9
v -8 3 -10
v -8 7 -10
v 1 3 -10
v 1 7 -10
v -9 0 9
v 6 0 9
v 6 0 5
v 9 0 5
v -10 0 -0
v -9 0 -0
v 6 0 -2
v 9 0 -2
v -10 0 -7
v -5 0 -7
v 5 0 -7
v 6 0 -7
v -5 0 -9
v 5 0 -9
v -10 2 7
v -9 2 7
v -10 2 3
v -9 2 3
v 6 2 -2
v 7 2 -2
v 6 2 -5
v 7 2 -5
v 0 3 10
v 7 3 10
v 0 3 9
v 6 3 9
v 6 3 7
v 7 3 7
v -8 3 -7
v -5 3 -7
v -5 3 -9
v 1 3 -9
v -8 3 -10
v 1 3 -10
v -5 4 10
v -3 4 10
v -5 4 9
v -3 4 9
v -10 7 8
v -9 7 8
v -10 7 -0
v -9 7 -0
v -9 9 10
v -6 9 10
v -9 9 9
v -6 9 9
v -10 4 7
v -9 4 7
v -10 4 3
v -9 4 3
v 6 7 5
v 9 7 5
v 6 7 1
v 7 7 1
v 7 7 -2
v 9 7 -2
v -8 7 -7
v -5 7 -7
v -5 7 -9
v 1 7 -9
v -8 7 -10
v 1 7 -10
v -5 8 10
v -3 8 10
v -5 8 9
v -3 8 9
v -10 8 -0
v -9 8 -0
v -10 8 -7
v -9 8 -7
v 0 9 10
v 7 9 10
v 0 9 9
v 6 9 9
v 6 9 7
v 7 9 7
v 6 11 1
v 7 11 1
v 6 11 -5
v 7 11 -5
v -9 12 10
v -6 12 10
v -9 12 9
v -6 12 9
v -10 12 8
v -9 12 8
v -10 12 -0
v -9 12 -0
v -9 13 9
v 6 13 9
v -9 13 8
v 0 13 8
v 0 13 3
v 5 13 3
v -9 13 -4
v 0 13 -4
v 5 13 -4
v -5 13 -5
v 5 13 -5
v -9 13 -7
v -5 13 -7
v 5 13 -7
v 6 13 -7
v -9 14 8
v 0 14 8
v -2 14 3
v 0 14 3
v -9 14 -4
v -2 14 -4
v -5 14 -5
v 5 14 -5
v -5 14 -9
v 5 14 -9
v -2 15 3
v 5 15 3
v -2 15 -4
v 5 15 -4

# faces
f 5/2/1 4/2/1 3/2/1
f 6/2/1 4/2/1 5/2/1
f 8/1/1 2/1/1 1/1/1
f 9/1/1 2/1/1 8/1/1
f 9/1/1 8/1/1 7/1/1
f 10/1/1 2/1/1 9/1/1
f 11/1/1 9/1/1 7/1/1
f 12/1/1 9/1/1 11/1/1
f 15/1/1 14/1/1 13/1/1
f 16/1/1 14/1/1 15/1/1
f 17/1/1 15/1/1 13/1/1
f 18/1/1 14/1/1 16/1/1
f 19/1/1 17/1/1 13/1/1
f 19/1/1 18/1/1 17/1/1
f 20/1/1 14/1/1 18/1/1
f 20/1/1 18/1/1 19/1/1
f 24/1/1 19/1/1 13/1/1
f 25/1/1 22/1/1 21/1/1
f 26/1/1 22/1/1 25/1/1
f 27/2/1 24/2/1 23/2/1
f 28/1/1 19/1/1 24/1/1
f 28/2/1 24/2/1 27/2/1
f 29/1/1 19/1/1 28/1/1
f 30/2/1 26/2/1 25/2/1
f 31/1/1 29/1/1 28/1/1
f 32/2/1 30/2/1 29/2/1
f 32/1/1 29/1/1 31/1/1
f 33/1/1 22/1/1 26/1/1
f 33/2/1 30/2/1 32/2/1
f 33/2/1 26/2/1 30/2/1
f 34/1/1 22/1/1 33/1/1
f 35/2/1 33/2/1 32/2/1
f 36/2/1 33/2/1 35/2/1
f 39/1/1 38/1/1 37/1/1
f 40/1/1 38/1/1 39/1/1
f 43/2/1 42/2/1 41/2/1
f 44/2/1 42/2/1 43/2/1
f 49/1/1 46/1/1 45/1/1
f 50/1/1 46/1/1 49/1/1
f 52/2/1 48/2/1 47/2/1
f 53/2/1 52/2/1 51/2/1
f 54/2/1 48/2/1 52/2/1
f 54/2/1 52/2/1 53/2/1
f 57/1/1 56/1/1 55/1/1
f 58/1/1 56/1/1 57/1/1
f 61/2/1 60/2/1 59/2/1
f 62/2/1 60/2/1 61/2/1
f 63/2/2 64/2/2 65/2/2
f 65/2/2 64/2/2 66/2/2
f 67/1/2 68/1/2 69/1/2
f 69/1/2 68/1/2 70/1/2
f 71/2/2 72/2/2 73/2/2
f 73/2/2 72/2/2 74/2/2
f 75/1/2 76/1/2 77/1/2
f 77/1/2 76/1/2 78/1/2
f 79/2/2 80/2/2 84/2/2
f 83/2/2 84/2/2 85/2/2
f 84/2/2 80/2/2 86/2/2
f 85/2/2 84/2/2 86/2/2
f 81/1/2 82/1/2 87/1/2
f 87/1/2 82/1/2 88/1/2
f 91/1/2 92/1/2 93/1/2
f 93/1/2 92/1/2 94/1/2
f 89/1/2 90/1/2 95/1/2
f 95/1/2 90/1/2 96/1/2
f 96/1/2 90/1/2 97/1/2
f 96/1/2 97/1/2 100/1/2
f 97/1/2 98/1/2 100/1/2
f 100/1/2 98/1/2 101/1/2
f 99/1/2 100/1/2 101/1/2
f 94/1/2 92/1/2 102/1/2
f 99/1/2 101/1/2 103/1/2
f 101/1/2 102/1/2 103/1/2
f 102/1/2 92/1/2 104/1/2
f 103/1/2 102/1/2 104/1/2
f 105/1/2 106/1/2 110/1/2
f 107/2/2 108/2/2 111/2/2
f 111/2/2 108/2/2 112/2/2
f 109/1/2 110/1/2 113/1/2
f 110/1/2 106/1/2 114/1/2
f 113/1/2 110/1/2 114/1/2
f 115/2/2 116/2/2 117/2/2
f 117/2/2 116/2/2 118/2/2
f 121/2/3 120/2/3 119/2/3
f 122/2/3 120/2/3 121/2/3
f 125/1/3 124/1/3 123/1/3
f 126/1/3 124/1/3 125/1/3
f 129/2/3 128/2/3 127/2/3
f 130/2/3 128/2/3 129/2/3
f 135/1/3 132/1/3 131/1/3
f 136/1/3 134/1/3 133/1/3
f 137/1/3 135/1/3 131/1/3
f 137/1/3 136/1/3 135/1/3
f 138/1/3 136/1/3 137/1/3
f 139/1/3 137/1/3 131/1/3
f 140/1/3 136/1/3 138/1/3
f 141/1/3 139/1/3 131/1/3
f 141/1/3 140/1/3 139/1/3
f 142/1/3 136/1/3 140/1/3
f 142/1/3 140/1/3 141/1/3
f 143/1/3 141/1/3 131/1/3
f 144/1/3 141/1/3 143/1/3
f 145/1/3 136/1/3 142/1/3
f 146/1/3 134/1/3 136/1/3
f 146/1/3 136/1/3 145/1/3
f 149/1/3 148/1/3 147/1/3
f 150/1/3 148/1/3 149/1/3
f 153/2/3 152/2/3 151/2/3
f 154/2/3 152/2/3 153/2/3
f 157/2/3 156/2/3 155/2/3
f 158/2/3 156/2/3 157/2/3
f 161/2/3 160/2/3 159/2/3
f 162/2/3 160/2/3 161/2/3
f 166/1/3 164/1/3 163/1/3
f 167/1/3 166/1/3 165/1/3
f 168/1/3 164/1/3 166/1/3
f 168/1/3 166/1/3 167/1/3
f 171/1/3 170/1/3 169/1/3
f 172/1/3 170/1/3 171/1/3
f 175/1/3 174/1/3 173/1/3
f 176/1/3 174/1/3 175/1/3
f 179/2/3 178/2/3 177/2/3
f 180/2/3 178/2/3 179/2/3
f 181/2/4 182/2/4 183/2/4
f 183/2/4 182/2/4 184/2/4
f 185/2/4 186/2/4 187/2/4
f 187/2/4 186/2/4 188/2/4
f 189/1/4 190/1/4 191/1/4
f 191/1/4 190/1/4 192/1/4
f 192/1/4 190/1/4 193/1/4
f 194/2/4 195/2/4 196/2/4
f 194/2/4 196/2/4 198/2/4
f 196/2/4 197/2/4 198/2/4
f 198/2/4 197/2/4 199/2/4
f 200/2/4 201/2/4 202/2/4
f 200/2/4 202/2/4 204/2/4
f 202/1/4 203/1/4 205/1/4
f 204/2/4 202/2/4 205/2/4
f 204/1/4 205/1/4 206/1/4
f 205/1/4 203/1/4 207/1/4
f 206/1/4 205/1/4 207/1/4
f 208/1/4 209/1/4 210/1/4
f 210/1/4 209/1/4 211/1/4
f 212/1/4 213/1/4 214/1/4
f 212/1/4 214/1/4 216/1/4
f 214/1/4 215/1/4 216/1/4
f 216/1/4 215/1/4 217/1/4
f 212/1/4 216/1/4 218/1/4
f 218/1/4 216/1/4 219/1/4
f 217/1/4 215/1/4 220/1/4
f 220/1/4 215/1/4 221/1/4
f 222/1/4 223/1/4 224/1/4
f 224/1/4 223/1/4 225/1/4
f 226/2/4 227/2/4 230/2/4
f 228/2/4 229/2/4 231/2/4
f 226/2/4 230/2/4 232/2/4
f 230/2/4 231/2/4 232/2/4
f 231/2/4 229/2/4 233/2/4
f 232/2/4 231/2/4 233/2/4
f 234/1/4 235/1/4 236/1/4
f 236/1/4 235/1/4 237/1/4
f 240/1/5 239/1/5 238/1/5
f 243/1/5 240/1/5 238/1/5
f 244/2/5 241/2/5 240/2/5
f 244/1/5 243/1/5 242/1/5
f 244/1/5 240/1/5 243/1/5
f 245/2/5 241/2/5 244/2/5
f 246/1/5 244/1/5 242/1/5
f 247/1/5 244/1/5 246/1/5
f 248/1/5 244/1/5 247/1/5
f 249/1/5 244/1/5 248/1/5
f 250/2/5 248/2/5 247/2/5
f 251/2/5 248/2/5 250/2/5
f 254/2/5 253/2/5 252/2/5
f 255/2/5 253/2/5 254/2/5
f 258/1/5 257/1/5 256/1/5
f 259/1/5 257/1/5 258/1/5
f 262/2/5 261/2/5 260/2/5
f 263/2/5 261/2/5 262/2/5
f 264/2/5 261/2/5 263/2/5
f 265/2/5 261/2/5 264/2/5
f 268/1/5 267/1/5 266/1/5
f 270/1/5 268/1/5 266/1/5
f 270/1/5 269/1/5 268/1/5
f 271/1/5 269/1/5 270/1/5
f 274/1/5 273/1/5 272/1/5
f 275/1/5 273/1/5 274/1/5
f 278/1/5 277/1/5 276/1/5
f 279/1/5 277/1/5 278/1/5
f 282/2/5 281/2/5 280/2/5
f 283/2/5 281/2/5 282/2/5
f 284/2/6 285/2/6 286/2/6
f 286/2/6 285/2/6 287/2/6
f 288/2/6 289/2/6 290/2/6
f 290/2/6 289/2/6 291/2/6
f 291/2/6 289/2/6 292/2/6
f 292/2/6 289/2/6 293/2/6
f 294/1/6 295/1/6 296/1/6
f 294/1/6 296/1/6 298/1/6
f 296/1/6 297/1/6 298/1/6
f 298/1/6 297/1/6 299/1/6
f 300/1/6 301/1/6 302/1/6
f 302/1/6 301/1/6 303/1/6
f 304/1/6 305/1/6 306/1/6
f 306/1/6 305/1/6 307/1/6
f 308/2/6 309/2/6 310/2/6
f 310/2/6 309/2/6 311/2/6
f 311/2/6 309/2/6 312/2/6
f 312/2/6 309/2/6 313/2/6
f 314/1/6 315/1/6 316/1/6
f 316/1/6 315/1/6 317/1/6
f 318/2/6 319/2/6 320/2/6
f 320/2/6 319/2/6 321/2/6
f 322/1/6 323/1/6 324/1/6
f 324/1/6 323/1/6 325/1/6
f 326/1/6 327/1/6 328/1/6
f 328/1/6 327/1/6 329/1/6
f 329/1/6 327/1/6 330/1/6
f 330/1/6 327/1/6 331/1/6
f 331/1/6 327/1/6 334/1/6
f 332/1/6 333/1/6 335/1/6
f 333/1/6 334/1/6 335/1/6
f 334/1/6 327/1/6 336/1/6
f 335/1/6 334/1/6 336/1/6
f 332/1/6 335/1/6 337/1/6
f 337/1/6 335/1/6 338/1/6
f 336/1/6 327/1/6 339/1/6
f 339/1/6 327/1/6 340/1/6
f 341/2/6 342/2/6 343/2/6
f 343/2/6 342/2/6 344/2/6
f 341/2/6 343/2/6 345/2/6
f 345/2/6 343/2/6 346/2/6
f 347/2/6 348/2/6 349/2/6
f 349/2/6 348/2/6 350/2/6
f 351/1/6 352/1/6 353/1/6
f 353/1/6 352/1/6 354/1/6
