# MagicaVoxel @ Ephtracy

# group
g ground

# material
mtllib ground.mtl
usemtl palette

# normals
vn -1 0 0
vn 1 0 0
vn 0 0 1
vn 0 0 -1
vn 0 -1 0
vn 0 1 0

# texcoords
vt 0.310547 0.5
vt 0.541016 0.5
vt 0.556641 0.5
vt 0.955078 0.5

# verts
v -20 0 20
v -20 0 -20
v -20 10 20
v -20 10 -20
v -20 19 20
v -20 19 -0
v -20 19 -20
v -20 20 20
v -20 20 -0
v -20 20 -20
v 20 0 20
v 20 0 -20
v 20 10 20
v 20 10 -20
v 20 19 20
v 20 19 -0
v 20 19 -20
v 20 20 20
v 20 20 -0
v 20 20 -20
v -20 0 20
v -20 10 20
v -20 19 20
v -20 20 20
v 0 19 20
v 0 20 20
v 20 0 20
v 20 10 20
v 20 19 20
v 20 20 20
v -20 0 -20
v -20 10 -20
v -20 19 -20
v -20 20 -20
v 0 19 -20
v 0 20 -20
v 20 0 -20
v 20 10 -20
v 20 19 -20
v 20 20 -20
v -20 0 20
v 20 0 20
v -20 0 -20
v 20 0 -20
v -20 20 20
v 0 20 20
v 20 20 20
v -20 20 -0
v 0 20 -0
v 20 20 -0
v -20 20 -20
v 0 20 -20
v 20 20 -20

# faces
f 3/4/1 2/4/1 1/4/1
f 4/4/1 2/4/1 3/4/1
f 5/1/1 4/1/1 3/1/1
f 6/1/1 4/1/1 5/1/1
f 7/1/1 4/1/1 6/1/1
f 8/3/1 6/3/1 5/3/1
f 9/2/1 7/2/1 6/2/1
f 9/3/1 6/3/1 8/3/1
f 10/2/1 7/2/1 9/2/1
f 11/4/2 12/4/2 13/4/2
f 13/4/2 12/4/2 14/4/2
f 13/1/2 14/1/2 15/1/2
f 15/1/2 14/1/2 16/1/2
f 16/1/2 14/1/2 17/1/2
f 15/2/2 16/2/2 18/2/2
f 16/3/2 17/3/2 19/3/2
f 18/2/2 16/2/2 19/2/2
f 19/3/2 17/3/2 20/3/2
f 25/1/3 23/1/3 22/1/3
f 25/3/3 24/3/3 23/3/3
f 26/3/3 24/3/3 25/3/3
f 27/4/3 22/4/3 21/4/3
f 28/1/3 25/1/3 22/1/3
f 28/4/3 22/4/3 27/4/3
f 29/2/3 26/2/3 25/2/3
f 29/1/3 25/1/3 28/1/3
f 30/2/3 26/2/3 29/2/3
f 32/1/4 33/1/4 35/1/4
f 33/2/4 34/2/4 35/2/4
f 35/2/4 34/2/4 36/2/4
f 31/4/4 32/4/4 37/4/4
f 32/1/4 35/1/4 38/1/4
f 37/4/4 32/4/4 38/4/4
f 35/3/4 36/3/4 39/3/4
f 38/1/4 35/1/4 39/1/4
f 39/3/4 36/3/4 40/3/4
f 43/4/5 42/4/5 41/4/5
f 44/4/5 42/4/5 43/4/5
f 45/3/6 46/3/6 48/3/6
f 46/2/6 47/2/6 49/2/6
f 48/3/6 46/3/6 49/3/6
f 49/2/6 47/2/6 50/2/6
f 48/2/6 49/2/6 51/2/6
f 49/3/6 50/3/6 52/3/6
f 51/2/6 49/2/6 52/2/6
f 52/3/6 50/3/6 53/3/6
