# MagicaVoxel @ Ephtracy

# group
g guy4

# material
mtllib guy4.mtl
usemtl palette

# normals
vn -1 0 0
vn 1 0 0
vn 0 0 1
vn 0 0 -1
vn 0 -1 0
vn 0 1 0

# texcoords
vt 0.318359 0.5
vt 0.427734 0.5
vt 0.623047 0.5
vt 0.771484 0.5
vt 0.958984 0.5

# verts
v -4 14 -0
v -4 14 -1
v -4 15 -0
v -4 15 -1
v -4 21 -0
v -4 21 -1
v -3 0 1
v -3 0 -1
v -3 1 1
v -3 1 -0
v -3 1 -1
v -3 14 -0
v -3 14 -1
v -3 15 1
v -3 15 -0
v -3 15 -1
v -3 15 -2
v -3 21 -0
v -3 21 -1
v -3 22 1
v -3 22 -2
v -2 16 2
v -2 16 1
v -2 16 -2
v -2 16 -3
v -2 21 2
v -2 21 1
v -2 21 -2
v -2 21 -3
v -1 22 -0
v -1 22 -1
v -1 24 -0
v -1 24 -1
v 2 0 1
v 2 0 -1
v 2 1 1
v 2 1 -0
v 2 1 -1
v 2 14 -0
v 2 14 -1
v -2 0 1
v -2 0 -1
v -2 1 1
v -2 1 -0
v -2 1 -1
v -2 14 -0
v -2 14 -1
v 1 22 -0
v 1 22 -1
v 1 24 -0
v 1 24 -1
v 2 16 2
v 2 16 1
v 2 16 -2
v 2 16 -3
v 2 21 2
v 2 21 1
v 2 21 -2
v 2 21 -3
v 3 0 1
v 3 0 -1
v 3 1 1
v 3 1 -0
v 3 1 -1
v 3 14 -0
v 3 14 -1
v 3 15 1
v 3 15 -0
v 3 15 -1
v 3 15 -2
v 3 21 -0
v 3 21 -1
v 3 22 1
v 3 22 -2
v 4 14 -0
v 4 14 -1
v 4 15 -0
v 4 15 -1
v 4 21 -0
v 4 21 -1
v -2 16 2
v -2 21 2
v 2 16 2
v 2 21 2
v -3 0 1
v -3 1 1
v -3 15 1
v -3 22 1
v -2 0 1
v -2 1 1
v -2 16 1
v -2 21 1
v 2 0 1
v 2 1 1
v 2 16 1
v 2 21 1
v 3 0 1
v 3 1 1
v 3 15 1
v 3 22 1
v -4 14 -0
v -4 15 -0
v -4 21 -0
v -3 1 -0
v -3 14 -0
v -3 15 -0
v -3 21 -0
v -2 1 -0
v -2 14 -0
v -1 22 -0
v -1 24 -0
v 1 22 -0
v 1 24 -0
v 2 1 -0
v 2 14 -0
v 3 1 -0
v 3 14 -0
v 3 15 -0
v 3 21 -0
v 4 14 -0
v 4 15 -0
v 4 21 -0
v -4 14 -1
v -4 15 -1
v -4 21 -1
v -3 0 -1
v -3 1 -1
v -3 14 -1
v -3 15 -1
v -3 21 -1
v -2 0 -1
v -2 1 -1
v -2 14 -1
v -1 22 -1
v -1 24 -1
v 1 22 -1
v 1 24 -1
v 2 0 -1
v 2 1 -1
v 2 14 -1
v 3 0 -1
v 3 1 -1
v 3 14 -1
v 3 15 -1
v 3 21 -1
v 4 14 -1
v 4 15 -1
v 4 21 -1
v -3 15 -2
v -3 22 -2
v -2 16 -2
v -2 21 -2
v 2 16 -2
v 2 21 -2
v 3 15 -2
v 3 22 -2
v -2 16 -3
v -2 21 -3
v 2 16 -3
v 2 21 -3
v -3 0 1
v -2 0 1
v 2 0 1
v 3 0 1
v -3 0 -1
v -2 0 -1
v 2 0 -1
v 3 0 -1
v -4 14 -0
v -3 14 -0
v -2 14 -0
v 2 14 -0
v 3 14 -0
v 4 14 -0
v -4 14 -1
v -3 14 -1
v -2 14 -1
v 2 14 -1
v 3 14 -1
v 4 14 -1
v -3 15 1
v 3 15 1
v -3 15 -0
v 3 15 -0
v -3 15 -1
v 3 15 -1
v -3 15 -2
v 3 15 -2
v -2 16 2
v 2 16 2
v -2 16 1
v 2 16 1
v -2 16 -2
v 2 16 -2
v -2 16 -3
v 2 16 -3
v -3 1 1
v -2 1 1
v 2 1 1
v 3 1 1
v -3 1 -0
v -2 1 -0
v 2 1 -0
v 3 1 -0
v -2 21 2
v 2 21 2
v -2 21 1
v 2 21 1
v -4 21 -0
v -3 21 -0
v 3 21 -0
v 4 21 -0
v -4 21 -1
v -3 21 -1
v 3 21 -1
v 4 21 -1
v -2 21 -2
v 2 21 -2
v -2 21 -3
v 2 21 -3
v -3 22 1
v 3 22 1
v -1 22 -0
v 1 22 -0
v -1 22 -1
v 1 22 -1
v -3 22 -2
v 3 22 -2
v -1 24 -0
v 1 24 -0
v -1 24 -1
v 1 24 -1

# faces
f 3/1/1 2/1/1 1/1/1
f 4/1/1 2/1/1 3/1/1
f 5/3/1 4/3/1 3/3/1
f 6/3/1 4/3/1 5/3/1
f 9/4/1 8/4/1 7/4/1
f 10/4/1 8/4/1 9/4/1
f 11/4/1 8/4/1 10/4/1
f 12/5/1 11/5/1 10/5/1
f 13/5/1 11/5/1 12/5/1
f 18/3/1 15/3/1 14/3/1
f 19/3/1 17/3/1 16/3/1
f 20/3/1 18/3/1 14/3/1
f 20/3/1 19/3/1 18/3/1
f 21/3/1 17/3/1 19/3/1
f 21/3/1 19/3/1 20/3/1
f 26/3/1 23/3/1 22/3/1
f 27/3/1 23/3/1 26/3/1
f 28/3/1 25/3/1 24/3/1
f 29/3/1 25/3/1 28/3/1
f 32/1/1 31/1/1 30/1/1
f 33/1/1 31/1/1 32/1/1
f 36/4/1 35/4/1 34/4/1
f 37/4/1 35/4/1 36/4/1
f 38/4/1 35/4/1 37/4/1
f 39/5/1 38/5/1 37/5/1
f 40/5/1 38/5/1 39/5/1
f 41/4/2 42/4/2 43/4/2
f 43/4/2 42/4/2 44/4/2
f 44/4/2 42/4/2 45/4/2
f 44/5/2 45/5/2 46/5/2
f 46/5/2 45/5/2 47/5/2
f 48/1/2 49/1/2 50/1/2
f 50/1/2 49/1/2 51/1/2
f 52/3/2 53/3/2 56/3/2
f 56/3/2 53/3/2 57/3/2
f 54/3/2 55/3/2 58/3/2
f 58/3/2 55/3/2 59/3/2
f 60/4/2 61/4/2 62/4/2
f 62/4/2 61/4/2 63/4/2
f 63/4/2 61/4/2 64/4/2
f 63/5/2 64/5/2 65/5/2
f 65/5/2 64/5/2 66/5/2
f 67/3/2 68/3/2 71/3/2
f 69/3/2 70/3/2 72/3/2
f 67/3/2 71/3/2 73/3/2
f 71/3/2 72/3/2 73/3/2
f 72/3/2 70/3/2 74/3/2
f 73/3/2 72/3/2 74/3/2
f 75/1/2 76/1/2 77/1/2
f 77/1/2 76/1/2 78/1/2
f 77/3/2 78/3/2 79/3/2
f 79/3/2 78/3/2 80/3/2
f 83/3/3 82/3/3 81/3/3
f 84/3/3 82/3/3 83/3/3
f 89/4/3 86/4/3 85/4/3
f 90/4/3 86/4/3 89/4/3
f 91/3/3 88/3/3 87/3/3
f 92/3/3 88/3/3 91/3/3
f 95/3/3 91/3/3 87/3/3
f 96/3/3 88/3/3 92/3/3
f 97/4/3 94/4/3 93/4/3
f 98/4/3 94/4/3 97/4/3
f 99/3/3 95/3/3 87/3/3
f 99/3/3 96/3/3 95/3/3
f 100/3/3 88/3/3 96/3/3
f 100/3/3 96/3/3 99/3/3
f 105/1/3 102/1/3 101/1/3
f 106/3/3 103/3/3 102/3/3
f 106/1/3 102/1/3 105/1/3
f 107/3/3 103/3/3 106/3/3
f 108/5/3 105/5/3 104/5/3
f 108/5/3 106/5/3 105/5/3
f 109/5/3 106/5/3 108/5/3
f 112/1/3 111/1/3 110/1/3
f 113/1/3 111/1/3 112/1/3
f 115/5/3 106/5/3 109/5/3
f 116/5/3 115/5/3 114/5/3
f 117/5/3 106/5/3 115/5/3
f 117/5/3 115/5/3 116/5/3
f 118/5/3 106/5/3 117/5/3
f 120/1/3 118/1/3 117/1/3
f 121/3/3 119/3/3 118/3/3
f 121/1/3 118/1/3 120/1/3
f 122/3/3 119/3/3 121/3/3
f 123/1/4 124/1/4 128/1/4
f 124/3/4 125/3/4 129/3/4
f 128/1/4 124/1/4 129/1/4
f 129/3/4 125/3/4 130/3/4
f 126/4/4 127/4/4 131/4/4
f 127/5/4 128/5/4 132/5/4
f 131/4/4 127/4/4 132/4/4
f 128/5/4 129/5/4 132/5/4
f 132/5/4 129/5/4 133/5/4
f 134/1/4 135/1/4 136/1/4
f 136/1/4 135/1/4 137/1/4
f 133/5/4 129/5/4 140/5/4
f 138/4/4 139/4/4 141/4/4
f 139/5/4 140/5/4 142/5/4
f 141/4/4 139/4/4 142/4/4
f 140/5/4 129/5/4 143/5/4
f 142/5/4 140/5/4 143/5/4
f 143/5/4 129/5/4 144/5/4
f 143/1/4 144/1/4 146/1/4
f 144/3/4 145/3/4 147/3/4
f 146/1/4 144/1/4 147/1/4
f 147/3/4 145/3/4 148/3/4
f 149/3/4 150/3/4 151/3/4
f 151/3/4 150/3/4 152/3/4
f 149/3/4 151/3/4 153/3/4
f 152/3/4 150/3/4 154/3/4
f 149/3/4 153/3/4 155/3/4
f 153/3/4 154/3/4 155/3/4
f 154/3/4 150/3/4 156/3/4
f 155/3/4 154/3/4 156/3/4
f 157/3/4 158/3/4 159/3/4
f 159/3/4 158/3/4 160/3/4
f 165/4/5 162/4/5 161/4/5
f 166/4/5 162/4/5 165/4/5
f 167/4/5 164/4/5 163/4/5
f 168/4/5 164/4/5 167/4/5
f 175/1/5 170/1/5 169/1/5
f 176/1/5 170/1/5 175/1/5
f 177/5/5 172/5/5 171/5/5
f 178/5/5 172/5/5 177/5/5
f 179/1/5 174/1/5 173/1/5
f 180/1/5 174/1/5 179/1/5
f 183/3/5 182/3/5 181/3/5
f 184/3/5 182/3/5 183/3/5
f 187/3/5 186/3/5 185/3/5
f 188/3/5 186/3/5 187/3/5
f 191/3/5 190/3/5 189/3/5
f 192/3/5 190/3/5 191/3/5
f 195/3/5 194/3/5 193/3/5
f 196/3/5 194/3/5 195/3/5
f 197/4/6 198/4/6 201/4/6
f 201/4/6 198/4/6 202/4/6
f 199/4/6 200/4/6 203/4/6
f 203/4/6 200/4/6 204/4/6
f 205/3/6 206/3/6 207/3/6
f 207/3/6 206/3/6 208/3/6
f 209/3/6 210/3/6 213/3/6
f 213/3/6 210/3/6 214/3/6
f 211/3/6 212/3/6 215/3/6
f 215/3/6 212/3/6 216/3/6
f 217/3/6 218/3/6 219/3/6
f 219/3/6 218/3/6 220/3/6
f 221/3/6 222/3/6 223/3/6
f 223/3/6 222/3/6 224/3/6
f 221/3/6 223/3/6 225/3/6
f 224/3/6 222/3/6 226/3/6
f 221/3/6 225/3/6 227/3/6
f 225/3/6 226/3/6 227/3/6
f 226/3/6 222/3/6 228/3/6
f 227/3/6 226/3/6 228/3/6
f 229/1/6 230/1/6 231/1/6
f 231/1/6 230/1/6 232/1/6
