# MagicaVoxel @ Ephtracy

# group
g stand1

# material
mtllib stand1.mtl
usemtl palette

# normals
vn -1 0 0
vn 1 0 0
vn 0 0 1
vn 0 0 -1
vn 0 -1 0
vn 0 1 0

# texcoords
vt 0.291016 0.5
vt 0.310547 0.5
vt 0.583984 0.5
vt 0.966797 0.5

# verts
v -10 0 3
v -10 0 2
v -10 0 -2
v -10 0 -3
v -10 2 2
v -10 2 -2
v -10 9 3
v -10 9 -3
v -10 10 3
v -10 10 2
v -10 10 -3
v -10 17 3
v -10 17 2
v 9 0 3
v 9 0 2
v 9 0 -2
v 9 0 -3
v 9 2 3
v 9 2 2
v 9 2 -2
v 9 2 -3
v 9 8 3
v 9 8 2
v 9 9 3
v 9 9 2
v 9 10 3
v 9 10 2
v 9 16 3
v 9 16 2
v -9 0 3
v -9 0 2
v -9 0 -2
v -9 0 -3
v -9 2 3
v -9 2 2
v -9 2 -2
v -9 2 -3
v -9 8 3
v -9 8 2
v -9 9 3
v -9 9 2
v -9 10 3
v -9 10 2
v -9 16 3
v -9 16 2
v 10 0 3
v 10 0 2
v 10 0 -2
v 10 0 -3
v 10 2 2
v 10 2 -2
v 10 9 3
v 10 9 -3
v 10 10 3
v 10 10 2
v 10 10 -3
v 10 17 3
v 10 17 2
v -10 0 3
v -10 9 3
v -10 10 3
v -10 17 3
v -9 0 3
v -9 2 3
v -9 8 3
v -9 9 3
v -9 10 3
v -9 16 3
v -9 17 3
v -8 3 3
v -8 7 3
v -7 4 3
v -7 6 3
v -6 3 3
v -6 4 3
v -6 6 3
v -6 7 3
v -5 3 3
v -5 7 3
v -3 3 3
v -3 7 3
v -2 3 3
v -2 7 3
v -1 3 3
v -1 4 3
v -1 5 3
v -1 6 3
v 0 4 3
v 0 5 3
v 0 6 3
v 0 7 3
v 1 3 3
v 1 7 3
v 2 3 3
v 2 4 3
v 2 5 3
v 2 6 3
v 3 4 3
v 3 5 3
v 3 6 3
v 3 7 3
v 4 3 3
v 4 7 3
v 5 4 3
v 5 5 3
v 6 3 3
v 6 4 3
v 6 5 3
v 6 7 3
v 7 3 3
v 7 7 3
v 8 4 3
v 8 5 3
v 9 0 3
v 9 2 3
v 9 3 3
v 9 4 3
v 9 5 3
v 9 7 3
v 9 8 3
v 9 9 3
v 9 10 3
v 9 16 3
v 9 17 3
v 10 0 3
v 10 9 3
v 10 10 3
v 10 17 3
v -9 8 2
v -9 9 2
v 9 8 2
v 9 9 2
v -10 0 -2
v -10 2 -2
v -9 0 -2
v -9 2 -2
v 9 0 -2
v 9 2 -2
v 10 0 -2
v 10 2 -2
v -10 0 2
v -10 2 2
v -10 10 2
v -10 17 2
v -9 0 2
v -9 2 2
v -9 10 2
v -9 16 2
v -9 17 2
v 9 0 2
v 9 2 2
v 9 10 2
v 9 16 2
v 9 17 2
v 10 0 2
v 10 2 2
v 10 10 2
v 10 17 2
v -10 0 -3
v -10 9 -3
v -10 10 -3
v -9 0 -3
v -9 2 -3
v 9 0 -3
v 9 2 -3
v 10 0 -3
v 10 9 -3
v 10 10 -3
v -10 0 3
v -9 0 3
v 9 0 3
v 10 0 3
v -10 0 2
v -9 0 2
v 9 0 2
v 10 0 2
v -10 0 -2
v -9 0 -2
v 9 0 -2
v 10 0 -2
v -10 0 -3
v -9 0 -3
v 9 0 -3
v 10 0 -3
v -9 2 3
v 9 2 3
v -10 2 2
v -9 2 2
v 9 2 2
v 10 2 2
v -10 2 -2
v -9 2 -2
v 9 2 -2
v 10 2 -2
v -9 2 -3
v 9 2 -3
v -9 9 3
v 9 9 3
v -9 9 2
v 9 9 2
v -9 16 3
v 9 16 3
v -9 16 2
v 9 16 2
v -9 8 3
v 9 8 3
v -9 8 2
v 9 8 2
v -9 10 3
v 9 10 3
v -10 10 2
v -9 10 2
v 9 10 2
v 10 10 2
v -10 10 -3
v 10 10 -3
v -10 17 3
v -9 17 3
v 9 17 3
v 10 17 3
v -10 17 2
v -9 17 2
v 9 17 2
v 10 17 2

# faces
f 5/2/1 2/2/1 1/2/1
f 6/2/1 4/2/1 3/2/1
f 7/2/1 5/2/1 1/2/1
f 7/2/1 6/2/1 5/2/1
f 8/2/1 4/2/1 6/2/1
f 8/2/1 6/2/1 7/2/1
f 9/1/1 8/1/1 7/1/1
f 10/1/1 8/1/1 9/1/1
f 11/1/1 8/1/1 10/1/1
f 12/2/1 10/2/1 9/2/1
f 13/2/1 10/2/1 12/2/1
f 18/2/1 15/2/1 14/2/1
f 19/2/1 15/2/1 18/2/1
f 20/2/1 17/2/1 16/2/1
f 21/2/1 17/2/1 20/2/1
f 24/2/1 23/2/1 22/2/1
f 25/2/1 23/2/1 24/2/1
f 28/2/1 27/2/1 26/2/1
f 29/2/1 27/2/1 28/2/1
f 30/2/2 31/2/2 34/2/2
f 34/2/2 31/2/2 35/2/2
f 32/2/2 33/2/2 36/2/2
f 36/2/2 33/2/2 37/2/2
f 38/2/2 39/2/2 40/2/2
f 40/2/2 39/2/2 41/2/2
f 42/2/2 43/2/2 44/2/2
f 44/2/2 43/2/2 45/2/2
f 46/2/2 47/2/2 50/2/2
f 48/2/2 49/2/2 51/2/2
f 46/2/2 50/2/2 52/2/2
f 50/2/2 51/2/2 52/2/2
f 51/2/2 49/2/2 53/2/2
f 52/2/2 51/2/2 53/2/2
f 52/1/2 53/1/2 54/1/2
f 54/1/2 53/1/2 55/1/2
f 55/1/2 53/1/2 56/1/2
f 54/2/2 55/2/2 57/2/2
f 57/2/2 55/2/2 58/2/2
f 63/2/3 60/2/3 59/2/3
f 64/2/3 60/2/3 63/2/3
f 65/2/3 60/2/3 64/2/3
f 66/1/3 61/1/3 60/1/3
f 66/2/3 60/2/3 65/2/3
f 67/2/3 62/2/3 61/2/3
f 67/1/3 61/1/3 66/1/3
f 68/2/3 62/2/3 67/2/3
f 69/2/3 62/2/3 68/2/3
f 70/2/3 65/2/3 64/2/3
f 71/2/3 65/2/3 70/2/3
f 72/3/3 71/3/3 70/3/3
f 73/3/3 71/3/3 72/3/3
f 74/2/3 70/2/3 64/2/3
f 74/3/3 72/3/3 70/3/3
f 75/2/3 73/2/3 72/2/3
f 75/3/3 72/3/3 74/3/3
f 76/3/3 71/3/3 73/3/3
f 76/2/3 73/2/3 75/2/3
f 77/2/3 65/2/3 71/2/3
f 77/3/3 71/3/3 76/3/3
f 78/2/3 75/2/3 74/2/3
f 78/2/3 76/2/3 75/2/3
f 78/2/3 77/2/3 76/2/3
f 78/2/3 74/2/3 64/2/3
f 79/2/3 65/2/3 77/2/3
f 79/2/3 77/2/3 78/2/3
f 80/2/3 78/2/3 64/2/3
f 80/3/3 79/3/3 78/3/3
f 81/2/3 65/2/3 79/2/3
f 81/3/3 79/3/3 80/3/3
f 82/2/3 80/2/3 64/2/3
f 82/2/3 81/2/3 80/2/3
f 83/2/3 65/2/3 81/2/3
f 83/2/3 81/2/3 82/2/3
f 84/2/3 82/2/3 64/2/3
f 84/3/3 83/3/3 82/3/3
f 85/3/3 83/3/3 84/3/3
f 86/3/3 83/3/3 85/3/3
f 87/3/3 83/3/3 86/3/3
f 88/2/3 85/2/3 84/2/3
f 88/3/3 86/3/3 85/3/3
f 89/2/3 87/2/3 86/2/3
f 89/3/3 86/3/3 88/3/3
f 90/3/3 83/3/3 87/3/3
f 90/2/3 87/2/3 89/2/3
f 91/2/3 65/2/3 83/2/3
f 91/3/3 83/3/3 90/3/3
f 92/2/3 90/2/3 89/2/3
f 92/2/3 84/2/3 64/2/3
f 92/2/3 91/2/3 90/2/3
f 92/2/3 88/2/3 84/2/3
f 92/2/3 89/2/3 88/2/3
f 93/2/3 65/2/3 91/2/3
f 93/2/3 91/2/3 92/2/3
f 94/2/3 92/2/3 64/2/3
f 94/3/3 93/3/3 92/3/3
f 95/3/3 93/3/3 94/3/3
f 96/3/3 93/3/3 95/3/3
f 97/3/3 93/3/3 96/3/3
f 98/2/3 95/2/3 94/2/3
f 98/3/3 96/3/3 95/3/3
f 99/2/3 97/2/3 96/2/3
f 99/3/3 96/3/3 98/3/3
f 100/3/3 93/3/3 97/3/3
f 100/2/3 97/2/3 99/2/3
f 101/2/3 65/2/3 93/2/3
f 101/3/3 93/3/3 100/3/3
f 102/2/3 100/2/3 99/2/3
f 102/2/3 94/2/3 64/2/3
f 102/2/3 101/2/3 100/2/3
f 102/2/3 98/2/3 94/2/3
f 102/2/3 99/2/3 98/2/3
f 103/2/3 65/2/3 101/2/3
f 103/2/3 101/2/3 102/2/3
f 104/3/3 103/3/3 102/3/3
f 105/3/3 103/3/3 104/3/3
f 106/2/3 102/2/3 64/2/3
f 106/3/3 104/3/3 102/3/3
f 107/2/3 105/2/3 104/2/3
f 107/3/3 104/3/3 106/3/3
f 108/3/3 103/3/3 105/3/3
f 108/2/3 105/2/3 107/2/3
f 109/2/3 65/2/3 103/2/3
f 109/3/3 103/3/3 108/3/3
f 110/2/3 107/2/3 106/2/3
f 110/2/3 108/2/3 107/2/3
f 110/2/3 109/2/3 108/2/3
f 110/2/3 106/2/3 64/2/3
f 111/2/3 65/2/3 109/2/3
f 111/2/3 109/2/3 110/2/3
f 112/3/3 111/3/3 110/3/3
f 113/3/3 111/3/3 112/3/3
f 115/2/3 110/2/3 64/2/3
f 116/3/3 112/3/3 110/3/3
f 116/2/3 110/2/3 115/2/3
f 117/2/3 113/2/3 112/2/3
f 117/3/3 112/3/3 116/3/3
f 118/3/3 111/3/3 113/3/3
f 118/2/3 113/2/3 117/2/3
f 119/2/3 65/2/3 111/2/3
f 119/3/3 111/3/3 118/3/3
f 120/2/3 65/2/3 119/2/3
f 121/1/3 67/1/3 66/1/3
f 122/1/3 67/1/3 121/1/3
f 123/3/3 69/3/3 68/3/3
f 124/3/3 69/3/3 123/3/3
f 125/2/3 120/2/3 119/2/3
f 125/2/3 117/2/3 116/2/3
f 125/2/3 118/2/3 117/2/3
f 125/2/3 115/2/3 114/2/3
f 125/2/3 116/2/3 115/2/3
f 125/2/3 121/2/3 120/2/3
f 125/2/3 119/2/3 118/2/3
f 126/1/3 122/1/3 121/1/3
f 126/2/3 121/2/3 125/2/3
f 127/2/3 124/2/3 123/2/3
f 127/1/3 122/1/3 126/1/3
f 127/2/3 123/2/3 122/2/3
f 128/2/3 124/2/3 127/2/3
f 131/3/3 130/3/3 129/3/3
f 132/3/3 130/3/3 131/3/3
f 135/2/3 134/2/3 133/2/3
f 136/2/3 134/2/3 135/2/3
f 139/2/3 138/2/3 137/2/3
f 140/2/3 138/2/3 139/2/3
f 141/2/4 142/2/4 145/2/4
f 145/2/4 142/2/4 146/2/4
f 143/2/4 144/2/4 147/2/4
f 147/2/4 144/2/4 148/2/4
f 148/2/4 144/2/4 149/2/4
f 148/3/4 149/3/4 153/3/4
f 153/3/4 149/3/4 154/3/4
f 150/2/4 151/2/4 155/2/4
f 155/2/4 151/2/4 156/2/4
f 152/2/4 153/2/4 157/2/4
f 153/2/4 154/2/4 157/2/4
f 157/2/4 154/2/4 158/2/4
f 159/2/4 160/2/4 162/2/4
f 162/2/4 160/2/4 163/2/4
f 163/2/4 160/2/4 165/2/4
f 164/2/4 165/2/4 166/2/4
f 160/1/4 161/1/4 167/1/4
f 166/2/4 165/2/4 167/2/4
f 165/2/4 160/2/4 167/2/4
f 167/1/4 161/1/4 168/1/4
f 173/2/5 170/2/5 169/2/5
f 174/2/5 170/2/5 173/2/5
f 175/2/5 172/2/5 171/2/5
f 176/2/5 172/2/5 175/2/5
f 181/2/5 178/2/5 177/2/5
f 182/2/5 178/2/5 181/2/5
f 183/2/5 180/2/5 179/2/5
f 184/2/5 180/2/5 183/2/5
f 188/2/5 186/2/5 185/2/5
f 189/2/5 186/2/5 188/2/5
f 191/2/5 188/2/5 187/2/5
f 192/4/5 189/4/5 188/4/5
f 192/2/5 188/2/5 191/2/5
f 193/2/5 190/2/5 189/2/5
f 193/4/5 189/4/5 192/4/5
f 194/2/5 190/2/5 193/2/5
f 195/2/5 193/2/5 192/2/5
f 196/2/5 193/2/5 195/2/5
f 199/1/5 198/1/5 197/1/5
f 200/1/5 198/1/5 199/1/5
f 203/3/5 202/3/5 201/3/5
f 204/3/5 202/3/5 203/3/5
f 205/2/6 206/2/6 207/2/6
f 207/2/6 206/2/6 208/2/6
f 209/1/6 210/1/6 212/1/6
f 212/1/6 210/1/6 213/1/6
f 211/1/6 212/1/6 215/1/6
f 213/1/6 214/1/6 215/1/6
f 212/1/6 213/1/6 215/1/6
f 215/1/6 214/1/6 216/1/6
f 217/2/6 218/2/6 221/2/6
f 218/3/6 219/3/6 222/3/6
f 221/2/6 218/2/6 222/2/6
f 219/2/6 220/2/6 223/2/6
f 222/3/6 219/3/6 223/3/6
f 223/2/6 220/2/6 224/2/6
