# MagicaVoxel @ Ephtracy

# group
g woodgrainknife

# material
mtllib woodgrainknife.mtl
usemtl palette

# normals
vn -1 0 0
vn 1 0 0
vn 0 0 1
vn 0 0 -1
vn 0 -1 0
vn 0 1 0

# texcoords
vt 0.373047 0.5
vt 0.537109 0.5
vt 0.966797 0.5
vt 0.974609 0.5

# verts
v -4 20 1
v -4 20 -2
v -4 21 1
v -4 21 -0
v -4 21 -1
v -4 21 -2
v -4 24 -0
v -4 24 -1
v -4 26 -0
v -4 26 -1
v -4 28 -0
v -4 28 -1
v -4 29 -0
v -4 29 -1
v -4 32 -0
v -4 32 -1
v -4 34 -0
v -4 34 -1
v -4 36 -0
v -4 36 -1
v -4 38 -0
v -4 38 -1
v -4 40 -0
v -4 40 -1
v -3 8 -0
v -3 8 -1
v -3 20 -0
v -3 20 -1
v -3 22 1
v -3 22 -0
v -3 22 -1
v -3 22 -2
v -3 23 -1
v -3 23 -2
v -3 24 -0
v -3 24 -1
v -3 25 1
v -3 25 -0
v -3 25 -1
v -3 25 -2
v -3 26 1
v -3 26 -0
v -3 26 -1
v -3 27 -1
v -3 27 -2
v -3 28 1
v -3 28 -0
v -3 28 -1
v -3 29 -0
v -3 29 -1
v -3 29 -2
v -3 30 -1
v -3 30 -2
v -3 31 1
v -3 31 -0
v -3 32 -0
v -3 32 -1
v -3 33 1
v -3 33 -0
v -3 33 -1
v -3 33 -2
v -3 34 -0
v -3 34 -1
v -3 35 1
v -3 35 -0
v -3 35 -1
v -3 35 -2
v -3 36 -0
v -3 36 -1
v -3 37 1
v -3 37 -0
v -3 38 -0
v -3 38 -1
v -3 38 -2
v -3 39 1
v -3 39 -0
v -3 39 -1
v -3 39 -2
v -2 6 -0
v -2 6 -1
v -2 8 -0
v -2 8 -1
v -1 2 -0
v -1 2 -1
v -1 6 -0
v -1 6 -1
v 0 0 -0
v 0 0 -1
v 0 2 -0
v 0 2 -1
v 1 0 -0
v 1 0 -1
v 1 2 -0
v 1 2 -1
v 1 20 -0
v 1 20 -1
v 1 22 1
v 1 22 -0
v 1 22 -1
v 1 22 -2
v 1 24 -1
v 1 24 -2
v 1 25 1
v 1 25 -0
v 1 25 -1
v 1 26 1
v 1 26 -0
v 1 26 -1
v 1 26 -2
v 1 27 -0
v 1 27 -1
v 1 28 -1
v 1 28 -2
v 1 29 1
v 1 29 -0
v 1 29 -1
v 1 30 -1
v 1 30 -2
v 1 31 1
v 1 31 -0
v 1 31 -1
v 1 32 -1
v 1 32 -2
v 1 34 1
v 1 34 -0
v 1 35 -0
v 1 35 -1
v 1 35 -2
v 1 36 1
v 1 36 -0
v 1 36 -1
v 1 37 1
v 1 37 -0
v 1 37 -1
v 1 37 -2
v 1 38 -0
v 1 38 -1
v 1 39 1
v 1 39 -0
v 1 39 -1
v 1 39 -2
v 2 20 1
v 2 20 -0
v 2 20 -2
v 2 21 1
v 2 21 -0
v 2 21 -1
v 2 21 -2
v 2 22 -0
v 2 22 -1
v 2 25 -0
v 2 25 -1
v 2 27 -0
v 2 27 -1
v 2 29 -0
v 2 29 -1
v 2 31 -0
v 2 31 -1
v 2 35 -0
v 2 35 -1
v 2 36 -0
v 2 36 -1
v 2 38 -0
v 2 38 -1
v 2 40 -0
v 2 40 -1
v -4 20 1
v -4 21 1
v -3 22 1
v -3 25 1
v -3 26 1
v -3 28 1
v -3 31 1
v -3 33 1
v -3 35 1
v -3 37 1
v -3 39 1
v -2 22 1
v -2 23 1
v -2 26 1
v -2 27 1
v -2 28 1
v -2 29 1
v -2 31 1
v -2 32 1
v -2 33 1
v -2 34 1
v -2 35 1
v -2 36 1
v -2 37 1
v -2 38 1
v -1 23 1
v -1 24 1
v -1 25 1
v -1 26 1
v -1 27 1
v -1 28 1
v -1 29 1
v -1 30 1
v -1 32 1
v -1 33 1
v -1 34 1
v -1 35 1
v -1 36 1
v -1 37 1
v -1 38 1
v -1 39 1
v 0 20 1
v 0 21 1
v 0 24 1
v 0 25 1
v 0 28 1
v 0 29 1
v 0 30 1
v 0 31 1
v 0 33 1
v 0 34 1
v 0 35 1
v 0 36 1
v 1 22 1
v 1 25 1
v 1 26 1
v 1 29 1
v 1 31 1
v 1 34 1
v 1 36 1
v 1 37 1
v 1 39 1
v 2 20 1
v 2 21 1
v -4 21 -0
v -4 24 -0
v -4 26 -0
v -4 28 -0
v -4 29 -0
v -4 32 -0
v -4 34 -0
v -4 36 -0
v -4 38 -0
v -4 40 -0
v -3 8 -0
v -3 20 -0
v -3 22 -0
v -3 24 -0
v -3 25 -0
v -3 26 -0
v -3 28 -0
v -3 29 -0
v -3 31 -0
v -3 32 -0
v -3 33 -0
v -3 34 -0
v -3 35 -0
v -3 36 -0
v -3 37 -0
v -3 38 -0
v -3 39 -0
v -2 6 -0
v -2 8 -0
v -2 20 -0
v -2 21 -0
v -2 22 -0
v -2 39 -0
v -2 40 -0
v -1 2 -0
v -1 6 -0
v -1 8 -0
v -1 19 -0
v -1 39 -0
v 0 0 -0
v 0 2 -0
v 0 6 -0
v 0 8 -0
v 0 19 -0
v 0 20 -0
v 0 21 -0
v 1 0 -0
v 1 2 -0
v 1 20 -0
v 1 21 -0
v 1 22 -0
v 1 25 -0
v 1 26 -0
v 1 27 -0
v 1 29 -0
v 1 31 -0
v 1 34 -0
v 1 35 -0
v 1 36 -0
v 1 37 -0
v 1 38 -0
v 1 39 -0
v 1 40 -0
v 2 21 -0
v 2 22 -0
v 2 25 -0
v 2 27 -0
v 2 29 -0
v 2 31 -0
v 2 35 -0
v 2 36 -0
v 2 38 -0
v 2 40 -0
v -4 21 -1
v -4 24 -1
v -4 26 -1
v -4 28 -1
v -4 29 -1
v -4 32 -1
v -4 34 -1
v -4 36 -1
v -4 38 -1
v -4 40 -1
v -3 8 -1
v -3 20 -1
v -3 22 -1
v -3 23 -1
v -3 24 -1
v -3 25 -1
v -3 26 -1
v -3 27 -1
v -3 28 -1
v -3 29 -1
v -3 30 -1
v -3 32 -1
v -3 33 -1
v -3 34 -1
v -3 35 -1
v -3 36 -1
v -3 38 -1
v -3 39 -1
v -2 6 -1
v -2 8 -1
v -2 20 -1
v -2 21 -1
v -2 22 -1
v -2 39 -1
v -2 40 -1
v -1 2 -1
v -1 6 -1
v -1 8 -1
v -1 19 -1
v -1 20 -1
v -1 21 -1
v -1 39 -1
v 0 0 -1
v 0 2 -1
v 0 6 -1
v 0 8 -1
v 0 19 -1
v 0 22 -1
v 1 0 -1
v 1 2 -1
v 1 20 -1
v 1 21 -1
v 1 22 -1
v 1 24 -1
v 1 25 -1
v 1 26 -1
v 1 27 -1
v 1 28 -1
v 1 29 -1
v 1 30 -1
v 1 31 -1
v 1 32 -1
v 1 35 -1
v 1 36 -1
v 1 37 -1
v 1 38 -1
v 1 39 -1
v 1 40 -1
v 2 21 -1
v 2 22 -1
v 2 25 -1
v 2 27 -1
v 2 29 -1
v 2 31 -1
v 2 35 -1
v 2 36 -1
v 2 38 -1
v 2 40 -1
v -4 20 -2
v -4 21 -2
v -3 22 -2
v -3 23 -2
v -3 25 -2
v -3 27 -2
v -3 29 -2
v -3 30 -2
v -3 33 -2
v -3 35 -2
v -3 38 -2
v -3 39 -2
v -2 20 -2
v -2 21 -2
v -2 22 -2
v -2 23 -2
v -2 24 -2
v -2 25 -2
v -2 26 -2
v -2 27 -2
v -2 28 -2
v -2 29 -2
v -2 32 -2
v -2 33 -2
v -2 34 -2
v -2 35 -2
v -2 37 -2
v -2 38 -2
v -1 20 -2
v -1 21 -2
v -1 23 -2
v -1 24 -2
v -1 25 -2
v -1 26 -2
v -1 27 -2
v -1 28 -2
v -1 29 -2
v -1 30 -2
v -1 31 -2
v -1 32 -2
v -1 33 -2
v -1 34 -2
v -1 36 -2
v -1 37 -2
v -1 38 -2
v -1 39 -2
v 0 22 -2
v 0 23 -2
v 0 24 -2
v 0 25 -2
v 0 26 -2
v 0 27 -2
v 0 28 -2
v 0 29 -2
v 0 30 -2
v 0 31 -2
v 0 32 -2
v 0 33 -2
v 0 35 -2
v 0 36 -2
v 0 37 -2
v 0 38 -2
v 1 22 -2
v 1 24 -2
v 1 26 -2
v 1 28 -2
v 1 30 -2
v 1 32 -2
v 1 35 -2
v 1 37 -2
v 1 39 -2
v 2 20 -2
v 2 21 -2
v 0 0 -0
v 1 0 -0
v 0 0 -1
v 1 0 -1
v -1 2 -0
v 0 2 -0
v -1 2 -1
v 0 2 -1
v -2 6 -0
v -1 6 -0
v -2 6 -1
v -1 6 -1
v -3 8 -0
v -2 8 -0
v -3 8 -1
v -2 8 -1
v -4 20 1
v 0 20 1
v 2 20 1
v -3 20 -0
v -2 20 -0
v 0 20 -0
v 1 20 -0
v 2 20 -0
v -3 20 -1
v -2 20 -1
v -1 20 -1
v 1 20 -1
v -4 20 -2
v -2 20 -2
v -1 20 -2
v 2 20 -2
v -3 22 1
v -2 22 1
v 1 22 1
v -3 22 -0
v -2 22 -0
v 1 22 -0
v -3 22 -1
v -2 22 -1
v 0 22 -1
v 1 22 -1
v -3 22 -2
v -2 22 -2
v 0 22 -2
v 1 22 -2
v -4 21 1
v 0 21 1
v 2 21 1
v -4 21 -0
v -2 21 -0
v 0 21 -0
v 1 21 -0
v 2 21 -0
v -4 21 -1
v -2 21 -1
v -1 21 -1
v 1 21 -1
v 2 21 -1
v -4 21 -2
v -2 21 -2
v -1 21 -2
v 2 21 -2
v -3 39 1
v -1 39 1
v 1 39 1
v -3 39 -0
v -2 39 -0
v -1 39 -0
v 1 39 -0
v -3 39 -1
v -2 39 -1
v -1 39 -1
v 1 39 -1
v -3 39 -2
v -1 39 -2
v 1 39 -2
v -4 40 -0
v -2 40 -0
v 1 40 -0
v 2 40 -0
v -4 40 -1
v -2 40 -1
v 1 40 -1
v 2 40 -1

# faces
f 3/2/1 2/2/1 1/2/1
f 4/2/1 2/2/1 3/2/1
f 5/2/1 2/2/1 4/2/1
f 6/2/1 2/2/1 5/2/1
f 7/1/1 5/1/1 4/1/1
f 8/1/1 5/1/1 7/1/1
f 9/2/1 8/2/1 7/2/1
f 10/2/1 8/2/1 9/2/1
f 11/1/1 10/1/1 9/1/1
f 12/1/1 10/1/1 11/1/1
f 13/2/1 12/2/1 11/2/1
f 14/2/1 12/2/1 13/2/1
f 15/1/1 14/1/1 13/1/1
f 16/1/1 14/1/1 15/1/1
f 17/2/1 16/2/1 15/2/1
f 18/2/1 16/2/1 17/2/1
f 19/1/1 18/1/1 17/1/1
f 20/1/1 18/1/1 19/1/1
f 21/2/1 20/2/1 19/2/1
f 22/2/1 20/2/1 21/2/1
f 23/1/1 22/1/1 21/1/1
f 24/1/1 22/1/1 23/1/1
f 27/3/1 26/3/1 25/3/1
f 28/3/1 26/3/1 27/3/1
f 33/1/1 32/1/1 31/1/1
f 34/1/1 32/1/1 33/1/1
f 35/1/1 30/1/1 29/1/1
f 36/2/1 34/2/1 33/2/1
f 37/1/1 35/1/1 29/1/1
f 38/1/1 35/1/1 37/1/1
f 39/2/1 34/2/1 36/2/1
f 40/2/1 34/2/1 39/2/1
f 41/2/1 38/2/1 37/2/1
f 42/2/1 38/2/1 41/2/1
f 43/1/1 40/1/1 39/1/1
f 44/1/1 40/1/1 43/1/1
f 45/1/1 40/1/1 44/1/1
f 46/1/1 42/1/1 41/1/1
f 47/1/1 42/1/1 46/1/1
f 48/2/1 45/2/1 44/2/1
f 49/2/1 47/2/1 46/2/1
f 50/2/1 45/2/1 48/2/1
f 51/2/1 45/2/1 50/2/1
f 52/1/1 51/1/1 50/1/1
f 53/1/1 51/1/1 52/1/1
f 54/2/1 49/2/1 46/2/1
f 55/2/1 49/2/1 54/2/1
f 56/1/1 55/1/1 54/1/1
f 57/2/1 53/2/1 52/2/1
f 58/1/1 56/1/1 54/1/1
f 59/1/1 56/1/1 58/1/1
f 60/2/1 53/2/1 57/2/1
f 61/2/1 53/2/1 60/2/1
f 62/2/1 59/2/1 58/2/1
f 63/1/1 61/1/1 60/1/1
f 64/2/1 62/2/1 58/2/1
f 65/2/1 62/2/1 64/2/1
f 66/1/1 61/1/1 63/1/1
f 67/1/1 61/1/1 66/1/1
f 68/1/1 65/1/1 64/1/1
f 69/2/1 67/2/1 66/2/1
f 70/1/1 68/1/1 64/1/1
f 71/1/1 68/1/1 70/1/1
f 72/2/1 71/2/1 70/2/1
f 73/2/1 67/2/1 69/2/1
f 74/2/1 67/2/1 73/2/1
f 75/2/1 72/2/1 70/2/1
f 76/2/1 72/2/1 75/2/1
f 77/1/1 74/1/1 73/1/1
f 78/1/1 74/1/1 77/1/1
f 81/3/1 80/3/1 79/3/1
f 82/3/1 80/3/1 81/3/1
f 85/3/1 84/3/1 83/3/1
f 86/3/1 84/3/1 85/3/1
f 89/3/1 88/3/1 87/3/1
f 90/3/1 88/3/1 89/3/1
f 91/3/2 92/3/2 93/3/2
f 93/3/2 92/3/2 94/3/2
f 93/4/2 94/4/2 95/4/2
f 95/4/2 94/4/2 96/4/2
f 99/1/2 100/1/2 101/1/2
f 101/1/2 100/1/2 102/1/2
f 97/2/2 98/2/2 103/2/2
f 103/2/2 98/2/2 104/2/2
f 101/2/2 102/2/2 105/2/2
f 103/1/2 104/1/2 106/1/2
f 106/1/2 104/1/2 107/1/2
f 105/2/2 102/2/2 108/2/2
f 108/2/2 102/2/2 109/2/2
f 106/2/2 107/2/2 110/2/2
f 108/1/2 109/1/2 111/1/2
f 111/1/2 109/1/2 112/1/2
f 112/1/2 109/1/2 113/1/2
f 106/2/2 110/2/2 114/2/2
f 114/2/2 110/2/2 115/2/2
f 112/2/2 113/2/2 116/2/2
f 116/2/2 113/2/2 117/2/2
f 117/2/2 113/2/2 118/2/2
f 114/1/2 115/1/2 119/1/2
f 119/1/2 115/1/2 120/1/2
f 117/1/2 118/1/2 121/1/2
f 121/1/2 118/1/2 122/1/2
f 122/1/2 118/1/2 123/1/2
f 119/2/2 120/2/2 124/2/2
f 124/2/2 120/2/2 125/2/2
f 124/1/2 125/1/2 126/1/2
f 122/2/2 123/2/2 127/2/2
f 127/2/2 123/2/2 128/2/2
f 124/1/2 126/1/2 129/1/2
f 129/1/2 126/1/2 130/1/2
f 127/1/2 128/1/2 131/1/2
f 129/2/2 130/2/2 132/2/2
f 132/2/2 130/2/2 133/2/2
f 131/1/2 128/1/2 134/1/2
f 134/1/2 128/1/2 135/1/2
f 132/1/2 133/1/2 136/1/2
f 134/2/2 135/2/2 137/2/2
f 132/1/2 136/1/2 138/1/2
f 138/1/2 136/1/2 139/1/2
f 137/2/2 135/2/2 140/2/2
f 140/2/2 135/2/2 141/2/2
f 142/1/2 143/1/2 145/1/2
f 143/2/2 144/2/2 146/2/2
f 145/1/2 143/1/2 146/1/2
f 146/2/2 144/2/2 147/2/2
f 147/2/2 144/2/2 148/2/2
f 146/1/2 147/1/2 149/1/2
f 149/1/2 147/1/2 150/1/2
f 149/2/2 150/2/2 151/2/2
f 151/2/2 150/2/2 152/2/2
f 151/1/2 152/1/2 153/1/2
f 153/1/2 152/1/2 154/1/2
f 153/2/2 154/2/2 155/2/2
f 155/2/2 154/2/2 156/2/2
f 155/1/2 156/1/2 157/1/2
f 157/1/2 156/1/2 158/1/2
f 157/2/2 158/2/2 159/2/2
f 159/2/2 158/2/2 160/2/2
f 159/1/2 160/1/2 161/1/2
f 161/1/2 160/1/2 162/1/2
f 161/2/2 162/2/2 163/2/2
f 163/2/2 162/2/2 164/2/2
f 163/1/2 164/1/2 165/1/2
f 165/1/2 164/1/2 166/1/2
f 178/1/3 170/1/3 169/1/3
f 179/1/3 170/1/3 178/1/3
f 180/2/3 171/2/3 170/2/3
f 180/1/3 172/1/3 171/1/3
f 181/1/3 172/1/3 180/1/3
f 182/2/3 173/2/3 172/2/3
f 182/1/3 172/1/3 181/1/3
f 183/2/3 173/2/3 182/2/3
f 184/1/3 174/1/3 173/1/3
f 184/2/3 173/2/3 183/2/3
f 185/1/3 174/1/3 184/1/3
f 186/2/3 175/2/3 174/2/3
f 186/1/3 174/1/3 185/1/3
f 187/2/3 175/2/3 186/2/3
f 188/1/3 176/1/3 175/1/3
f 188/2/3 175/2/3 187/2/3
f 189/1/3 176/1/3 188/1/3
f 190/2/3 177/2/3 176/2/3
f 190/1/3 176/1/3 189/1/3
f 191/2/3 177/2/3 190/2/3
f 192/1/3 170/1/3 179/1/3
f 192/2/3 179/2/3 178/2/3
f 193/1/3 170/1/3 192/1/3
f 194/2/3 181/2/3 180/2/3
f 194/1/3 170/1/3 193/1/3
f 194/2/3 180/2/3 170/2/3
f 195/2/3 181/2/3 194/2/3
f 196/1/3 183/1/3 182/1/3
f 196/2/3 181/2/3 195/2/3
f 196/1/3 182/1/3 181/1/3
f 197/1/3 183/1/3 196/1/3
f 198/2/3 185/2/3 184/2/3
f 198/1/3 183/1/3 197/1/3
f 198/2/3 184/2/3 183/2/3
f 199/2/3 185/2/3 198/2/3
f 200/1/3 187/1/3 186/1/3
f 200/2/3 185/2/3 199/2/3
f 200/1/3 186/1/3 185/1/3
f 201/1/3 187/1/3 200/1/3
f 202/2/3 189/2/3 188/2/3
f 202/1/3 187/1/3 201/1/3
f 202/2/3 188/2/3 187/2/3
f 203/2/3 189/2/3 202/2/3
f 204/1/3 191/1/3 190/1/3
f 204/2/3 189/2/3 203/2/3
f 204/1/3 190/1/3 189/1/3
f 205/1/3 191/1/3 204/1/3
f 206/2/3 177/2/3 191/2/3
f 206/1/3 191/1/3 205/1/3
f 207/2/3 177/2/3 206/2/3
f 208/2/3 168/2/3 167/2/3
f 209/2/3 168/2/3 208/2/3
f 210/2/3 193/2/3 192/2/3
f 210/1/3 195/1/3 194/1/3
f 210/1/3 194/1/3 193/1/3
f 211/1/3 195/1/3 210/1/3
f 212/2/3 197/2/3 196/2/3
f 212/1/3 199/1/3 198/1/3
f 212/2/3 196/2/3 195/2/3
f 212/1/3 198/1/3 197/1/3
f 213/1/3 199/1/3 212/1/3
f 214/2/3 201/2/3 200/2/3
f 214/1/3 199/1/3 213/1/3
f 214/2/3 200/2/3 199/2/3
f 215/2/3 201/2/3 214/2/3
f 216/1/3 203/1/3 202/1/3
f 216/2/3 201/2/3 215/2/3
f 216/1/3 202/1/3 201/1/3
f 217/1/3 203/1/3 216/1/3
f 218/2/3 205/2/3 204/2/3
f 218/1/3 203/1/3 217/1/3
f 218/2/3 204/2/3 203/2/3
f 219/2/3 205/2/3 218/2/3
f 220/2/3 211/2/3 210/2/3
f 220/2/3 192/2/3 178/2/3
f 220/2/3 210/2/3 192/2/3
f 221/1/3 195/1/3 211/1/3
f 221/2/3 211/2/3 220/2/3
f 222/2/3 213/2/3 212/2/3
f 222/1/3 195/1/3 221/1/3
f 222/2/3 212/2/3 195/2/3
f 223/1/3 215/1/3 214/1/3
f 223/2/3 213/2/3 222/2/3
f 223/1/3 214/1/3 213/1/3
f 224/2/3 217/2/3 216/2/3
f 224/1/3 215/1/3 223/1/3
f 224/2/3 216/2/3 215/2/3
f 225/1/3 219/1/3 218/1/3
f 225/2/3 217/2/3 224/2/3
f 225/1/3 218/1/3 217/1/3
f 226/2/3 205/2/3 219/2/3
f 226/1/3 219/1/3 225/1/3
f 227/1/3 207/1/3 206/1/3
f 227/2/3 205/2/3 226/2/3
f 227/1/3 206/1/3 205/1/3
f 228/1/3 207/1/3 227/1/3
f 229/1/3 209/1/3 208/1/3
f 230/1/3 209/1/3 229/1/3
f 243/1/3 232/1/3 231/1/3
f 244/2/3 233/2/3 232/2/3
f 244/1/3 232/1/3 243/1/3
f 245/2/3 233/2/3 244/2/3
f 246/1/3 234/1/3 233/1/3
f 246/2/3 233/2/3 245/2/3
f 247/2/3 235/2/3 234/2/3
f 247/1/3 234/1/3 246/1/3
f 248/1/3 236/1/3 235/1/3
f 248/2/3 235/2/3 247/2/3
f 249/1/3 236/1/3 248/1/3
f 250/2/3 237/2/3 236/2/3
f 250/1/3 236/1/3 249/1/3
f 251/2/3 237/2/3 250/2/3
f 252/1/3 238/1/3 237/1/3
f 252/2/3 237/2/3 251/2/3
f 253/1/3 238/1/3 252/1/3
f 254/2/3 239/2/3 238/2/3
f 254/1/3 238/1/3 253/1/3
f 255/2/3 239/2/3 254/2/3
f 256/1/3 240/1/3 239/1/3
f 256/2/3 239/2/3 255/2/3
f 257/1/3 240/1/3 256/1/3
f 259/3/3 242/3/3 241/3/3
f 260/3/3 242/3/3 259/3/3
f 261/1/3 243/1/3 231/1/3
f 262/1/3 243/1/3 261/1/3
f 263/1/3 240/1/3 257/1/3
f 264/1/3 240/1/3 263/1/3
f 266/3/3 259/3/3 258/3/3
f 267/4/3 260/4/3 259/4/3
f 267/3/3 259/3/3 266/3/3
f 268/4/3 260/4/3 267/4/3
f 269/2/3 264/2/3 263/2/3
f 271/3/3 266/3/3 265/3/3
f 272/4/3 267/4/3 266/4/3
f 272/3/3 266/3/3 271/3/3
f 273/3/3 268/3/3 267/3/3
f 273/4/3 267/4/3 272/4/3
f 274/4/3 260/4/3 268/4/3
f 274/3/3 268/3/3 273/3/3
f 275/4/3 260/4/3 274/4/3
f 276/2/3 262/2/3 261/2/3
f 277/3/3 271/3/3 270/3/3
f 278/4/3 275/4/3 274/4/3
f 278/3/3 271/3/3 277/3/3
f 278/4/3 273/4/3 272/4/3
f 278/4/3 272/4/3 271/4/3
f 278/4/3 274/4/3 273/4/3
f 279/4/3 275/4/3 278/4/3
f 280/2/3 262/2/3 276/2/3
f 281/2/3 262/2/3 280/2/3
f 292/2/3 264/2/3 269/2/3
f 293/2/3 264/2/3 292/2/3
f 294/1/3 281/1/3 280/1/3
f 295/2/3 282/2/3 281/2/3
f 295/1/3 281/1/3 294/1/3
f 296/1/3 283/1/3 282/1/3
f 296/2/3 282/2/3 295/2/3
f 296/1/3 284/1/3 283/1/3
f 297/2/3 285/2/3 284/2/3
f 297/1/3 284/1/3 296/1/3
f 298/1/3 286/1/3 285/1/3
f 298/2/3 285/2/3 297/2/3
f 299/2/3 287/2/3 286/2/3
f 299/1/3 286/1/3 298/1/3
f 299/2/3 288/2/3 287/2/3
f 300/1/3 289/1/3 288/1/3
f 300/2/3 288/2/3 299/2/3
f 301/2/3 291/2/3 290/2/3
f 301/1/3 289/1/3 300/1/3
f 301/2/3 290/2/3 289/2/3
f 302/1/3 293/1/3 292/1/3
f 302/2/3 291/2/3 301/2/3
f 302/1/3 292/1/3 291/1/3
f 303/1/3 293/1/3 302/1/3
f 304/1/4 305/1/4 316/1/4
f 316/1/4 305/1/4 317/1/4
f 305/2/4 306/2/4 318/2/4
f 317/1/4 305/1/4 318/1/4
f 318/2/4 306/2/4 319/2/4
f 306/1/4 307/1/4 320/1/4
f 319/2/4 306/2/4 320/2/4
f 320/1/4 307/1/4 321/1/4
f 307/2/4 308/2/4 322/2/4
f 321/1/4 307/1/4 322/1/4
f 308/1/4 309/1/4 323/1/4
f 322/2/4 308/2/4 323/2/4
f 323/1/4 309/1/4 324/1/4
f 309/2/4 310/2/4 325/2/4
f 324/1/4 309/1/4 325/1/4
f 325/2/4 310/2/4 326/2/4
f 310/1/4 311/1/4 327/1/4
f 326/2/4 310/2/4 327/2/4
f 327/1/4 311/1/4 328/1/4
f 311/2/4 312/2/4 329/2/4
f 328/1/4 311/1/4 329/1/4
f 312/1/4 313/1/4 330/1/4
f 329/2/4 312/2/4 330/2/4
f 330/1/4 313/1/4 331/1/4
f 314/3/4 315/3/4 333/3/4
f 333/3/4 315/3/4 334/3/4
f 304/1/4 316/1/4 335/1/4
f 335/1/4 316/1/4 336/1/4
f 331/1/4 313/1/4 337/1/4
f 337/1/4 313/1/4 338/1/4
f 332/3/4 333/3/4 340/3/4
f 333/4/4 334/4/4 341/4/4
f 340/3/4 333/3/4 341/3/4
f 341/4/4 334/4/4 342/4/4
f 342/4/4 334/4/4 343/4/4
f 335/2/4 336/2/4 344/2/4
f 337/2/4 338/2/4 345/2/4
f 339/3/4 340/3/4 347/3/4
f 340/4/4 341/4/4 348/4/4
f 347/3/4 340/3/4 348/3/4
f 341/3/4 342/3/4 349/3/4
f 348/4/4 341/4/4 349/4/4
f 342/4/4 343/4/4 350/4/4
f 349/3/4 342/3/4 350/3/4
f 344/2/4 336/2/4 351/2/4
f 346/3/4 347/3/4 352/3/4
f 348/4/4 349/4/4 353/4/4
f 352/3/4 347/3/4 353/3/4
f 347/4/4 348/4/4 353/4/4
f 349/4/4 350/4/4 353/4/4
f 350/4/4 343/4/4 354/4/4
f 353/4/4 350/4/4 354/4/4
f 344/2/4 351/2/4 355/2/4
f 355/2/4 351/2/4 356/2/4
f 345/2/4 338/2/4 370/2/4
f 370/2/4 338/2/4 371/2/4
f 355/1/4 356/1/4 372/1/4
f 356/2/4 357/2/4 373/2/4
f 372/1/4 356/1/4 373/1/4
f 357/2/4 358/2/4 373/2/4
f 358/1/4 359/1/4 374/1/4
f 373/2/4 358/2/4 374/2/4
f 359/1/4 360/1/4 374/1/4
f 360/2/4 361/2/4 375/2/4
f 374/1/4 360/1/4 375/1/4
f 361/2/4 362/2/4 375/2/4
f 362/1/4 363/1/4 376/1/4
f 375/2/4 362/2/4 376/2/4
f 363/1/4 364/1/4 376/1/4
f 365/2/4 366/2/4 377/2/4
f 376/1/4 364/1/4 377/1/4
f 364/2/4 365/2/4 377/2/4
f 366/1/4 367/1/4 378/1/4
f 377/2/4 366/2/4 378/2/4
f 368/2/4 369/2/4 379/2/4
f 378/1/4 367/1/4 379/1/4
f 367/2/4 368/2/4 379/2/4
f 370/1/4 371/1/4 380/1/4
f 379/2/4 369/2/4 380/2/4
f 369/1/4 370/1/4 380/1/4
f 380/1/4 371/1/4 381/1/4
f 382/2/4 383/2/4 394/2/4
f 394/2/4 383/2/4 395/2/4
f 384/1/4 385/1/4 396/1/4
f 385/2/4 386/2/4 397/2/4
f 396/1/4 385/1/4 397/1/4
f 397/2/4 386/2/4 398/2/4
f 386/1/4 387/1/4 399/1/4
f 398/2/4 386/2/4 399/2/4
f 399/1/4 387/1/4 400/1/4
f 387/2/4 388/2/4 401/2/4
f 400/1/4 387/1/4 401/1/4
f 401/2/4 388/2/4 402/2/4
f 388/1/4 389/1/4 403/1/4
f 402/2/4 388/2/4 403/2/4
f 389/2/4 390/2/4 404/2/4
f 390/1/4 391/1/4 405/1/4
f 404/2/4 390/2/4 405/2/4
f 405/1/4 391/1/4 406/1/4
f 391/2/4 392/2/4 407/2/4
f 406/1/4 391/1/4 407/1/4
f 407/2/4 392/2/4 408/2/4
f 392/1/4 393/1/4 409/1/4
f 408/2/4 392/2/4 409/2/4
f 394/1/4 395/1/4 410/1/4
f 410/1/4 395/1/4 411/1/4
f 397/2/4 398/2/4 412/2/4
f 396/2/4 397/2/4 412/2/4
f 399/1/4 400/1/4 413/1/4
f 412/2/4 398/2/4 413/2/4
f 398/1/4 399/1/4 413/1/4
f 413/1/4 400/1/4 414/1/4
f 401/2/4 402/2/4 415/2/4
f 414/1/4 400/1/4 415/1/4
f 400/2/4 401/2/4 415/2/4
f 415/2/4 402/2/4 416/2/4
f 402/1/4 403/1/4 417/1/4
f 416/2/4 402/2/4 417/2/4
f 403/1/4 389/1/4 418/1/4
f 417/1/4 403/1/4 418/1/4
f 389/2/4 404/2/4 419/2/4
f 418/1/4 389/1/4 419/1/4
f 419/2/4 404/2/4 420/2/4
f 405/1/4 406/1/4 421/1/4
f 420/2/4 404/2/4 421/2/4
f 404/1/4 405/1/4 421/1/4
f 421/1/4 406/1/4 422/1/4
f 407/2/4 408/2/4 423/2/4
f 422/1/4 406/1/4 423/1/4
f 406/2/4 407/2/4 423/2/4
f 423/2/4 408/2/4 424/2/4
f 408/1/4 409/1/4 425/1/4
f 424/2/4 408/2/4 425/2/4
f 409/1/4 393/1/4 426/1/4
f 425/1/4 409/1/4 426/1/4
f 426/1/4 393/1/4 427/1/4
f 396/2/4 412/2/4 428/2/4
f 413/1/4 414/1/4 429/1/4
f 428/2/4 412/2/4 429/2/4
f 412/1/4 413/1/4 429/1/4
f 429/1/4 414/1/4 430/1/4
f 415/2/4 416/2/4 431/2/4
f 430/1/4 414/1/4 431/1/4
f 414/2/4 415/2/4 431/2/4
f 431/2/4 416/2/4 432/2/4
f 416/1/4 417/1/4 433/1/4
f 432/2/4 416/2/4 433/2/4
f 417/1/4 418/1/4 433/1/4
f 433/1/4 418/1/4 434/1/4
f 419/2/4 420/2/4 435/2/4
f 434/1/4 418/1/4 435/1/4
f 418/2/4 419/2/4 435/2/4
f 435/2/4 420/2/4 436/2/4
f 421/1/4 422/1/4 437/1/4
f 436/2/4 420/2/4 437/2/4
f 420/1/4 421/1/4 437/1/4
f 437/1/4 422/1/4 438/1/4
f 423/2/4 424/2/4 439/2/4
f 438/1/4 422/1/4 439/1/4
f 422/2/4 423/2/4 439/2/4
f 439/2/4 424/2/4 440/2/4
f 424/1/4 425/1/4 441/1/4
f 440/2/4 424/2/4 441/2/4
f 425/1/4 426/1/4 441/1/4
f 441/1/4 426/1/4 442/1/4
f 426/2/4 427/2/4 443/2/4
f 442/1/4 426/1/4 443/1/4
f 429/1/4 430/1/4 444/1/4
f 428/1/4 429/1/4 444/1/4
f 431/2/4 432/2/4 445/2/4
f 444/1/4 430/1/4 445/1/4
f 430/2/4 431/2/4 445/2/4
f 433/1/4 434/1/4 446/1/4
f 445/2/4 432/2/4 446/2/4
f 432/1/4 433/1/4 446/1/4
f 435/2/4 436/2/4 447/2/4
f 446/1/4 434/1/4 447/1/4
f 434/2/4 435/2/4 447/2/4
f 437/1/4 438/1/4 448/1/4
f 447/2/4 436/2/4 448/2/4
f 436/1/4 437/1/4 448/1/4
f 439/2/4 440/2/4 449/2/4
f 448/1/4 438/1/4 449/1/4
f 438/2/4 439/2/4 449/2/4
f 440/1/4 441/1/4 450/1/4
f 449/2/4 440/2/4 450/2/4
f 441/1/4 442/1/4 450/1/4
f 442/2/4 443/2/4 451/2/4
f 450/1/4 442/1/4 451/1/4
f 443/2/4 427/2/4 452/2/4
f 451/2/4 443/2/4 452/2/4
f 410/2/4 411/2/4 453/2/4
f 453/2/4 411/2/4 454/2/4
f 457/3/5 456/3/5 455/3/5
f 458/3/5 456/3/5 457/3/5
f 461/3/5 460/3/5 459/3/5
f 462/3/5 460/3/5 461/3/5
f 465/3/5 464/3/5 463/3/5
f 466/3/5 464/3/5 465/3/5
f 469/3/5 468/3/5 467/3/5
f 470/3/5 468/3/5 469/3/5
f 474/2/5 472/2/5 471/2/5
f 475/2/5 472/2/5 474/2/5
f 476/1/5 473/1/5 472/1/5
f 476/2/5 472/2/5 475/2/5
f 477/1/5 473/1/5 476/1/5
f 478/1/5 473/1/5 477/1/5
f 479/2/5 474/2/5 471/2/5
f 482/2/5 478/2/5 477/2/5
f 483/2/5 479/2/5 471/2/5
f 483/2/5 480/2/5 479/2/5
f 484/1/5 481/1/5 480/1/5
f 484/2/5 480/2/5 483/2/5
f 485/2/5 482/2/5 481/2/5
f 485/1/5 481/1/5 484/1/5
f 486/2/5 478/2/5 482/2/5
f 486/2/5 482/2/5 485/2/5
f 490/1/5 488/1/5 487/1/5
f 491/2/5 489/2/5 488/2/5
f 491/1/5 488/1/5 490/1/5
f 492/2/5 489/2/5 491/2/5
f 497/1/5 494/1/5 493/1/5
f 498/2/5 495/2/5 494/2/5
f 498/1/5 494/1/5 497/1/5
f 499/1/5 496/1/5 495/1/5
f 499/2/5 495/2/5 498/2/5
f 500/1/5 496/1/5 499/1/5
f 501/2/6 502/2/6 504/2/6
f 504/2/6 502/2/6 505/2/6
f 502/1/6 503/1/6 506/1/6
f 505/2/6 502/2/6 506/2/6
f 506/1/6 503/1/6 507/1/6
f 507/1/6 503/1/6 508/1/6
f 509/2/6 510/2/6 514/2/6
f 510/1/6 511/1/6 515/1/6
f 514/2/6 510/2/6 515/2/6
f 512/2/6 513/2/6 516/2/6
f 515/1/6 511/1/6 516/1/6
f 511/2/6 512/2/6 516/2/6
f 516/2/6 513/2/6 517/2/6
f 518/2/6 519/2/6 521/2/6
f 521/2/6 519/2/6 522/2/6
f 519/1/6 520/1/6 523/1/6
f 522/2/6 519/2/6 523/2/6
f 523/1/6 520/1/6 524/1/6
f 525/1/6 526/1/6 529/1/6
f 526/1/6 527/1/6 529/1/6
f 527/2/6 528/2/6 530/2/6
f 529/1/6 527/1/6 530/1/6
f 530/2/6 528/2/6 531/2/6
f 532/1/6 533/1/6 536/1/6
f 533/2/6 534/2/6 537/2/6
f 536/1/6 533/1/6 537/1/6
f 534/1/6 535/1/6 538/1/6
f 537/2/6 534/2/6 538/2/6
f 538/1/6 535/1/6 539/1/6
