# MagicaVoxel @ Ephtracy

# group
g wow

# material
mtllib wow.mtl
usemtl palette

# normals
vn -1 0 0
vn 1 0 0
vn 0 0 1
vn 0 0 -1
vn 0 -1 0
vn 0 1 0

# texcoords
vt 0.0214844 0.5
vt 0.705078 0.5
vt 0.841797 0.5
vt 0.958984 0.5
vt 0.966797 0.5
vt 0.994141 0.5

# verts
v -5 24 -0
v -5 24 -1
v -5 25 -0
v -5 25 -1
v -4 23 1
v -4 23 -2
v -4 24 -0
v -4 24 -1
v -4 25 -0
v -4 25 -1
v -4 26 1
v -4 26 -2
v -3 0 1
v -3 0 -1
v -3 1 1
v -3 1 -0
v -3 1 -1
v -3 15 2
v -3 15 -0
v -3 15 -1
v -3 15 -3
v -3 16 2
v -3 16 -3
v -3 23 1
v -3 23 -2
v -3 25 -3
v -3 25 -4
v -3 26 1
v -3 26 -2
v -3 27 2
v -3 27 -3
v -3 28 2
v -3 28 1
v -3 28 -3
v -3 29 -3
v -3 29 -4
v -3 30 1
v -3 30 -0
v -3 30 -2
v -3 30 -3
v -3 31 -0
v -3 31 -2
v -2 20 3
v -2 20 2
v -2 21 3
v -2 21 2
v -2 23 -3
v -2 23 -4
v -2 24 3
v -2 24 2
v -2 25 3
v -2 25 2
v -2 25 -3
v -2 25 -4
v -1 21 -3
v -1 21 -4
v -1 23 -3
v -1 23 -4
v 1 24 3
v 1 24 2
v 1 25 3
v 1 25 2
v 2 0 1
v 2 0 -1
v 2 1 1
v 2 1 -0
v 2 1 -1
v 2 15 -0
v 2 15 -1
v -2 0 1
v -2 0 -1
v -2 1 1
v -2 1 -0
v -2 1 -1
v -2 15 -0
v -2 15 -1
v -1 24 3
v -1 24 2
v -1 25 3
v -1 25 2
v 1 21 -3
v 1 21 -4
v 1 23 -3
v 1 23 -4
v 2 20 3
v 2 20 2
v 2 21 3
v 2 21 2
v 2 23 -3
v 2 23 -4
v 2 24 3
v 2 24 2
v 2 25 3
v 2 25 2
v 2 25 -3
v 2 25 -4
v 3 0 1
v 3 0 -1
v 3 1 1
v 3 1 -0
v 3 1 -1
v 3 15 2
v 3 15 -0
v 3 15 -1
v 3 15 -3
v 3 16 2
v 3 16 -3
v 3 23 1
v 3 23 -2
v 3 25 -3
v 3 25 -4
v 3 26 1
v 3 26 -2
v 3 27 2
v 3 27 -3
v 3 28 2
v 3 28 1
v 3 28 -3
v 3 29 -3
v 3 29 -4
v 3 30 1
v 3 30 -0
v 3 30 -2
v 3 30 -3
v 3 31 -0
v 3 31 -2
v 4 23 1
v 4 23 -2
v 4 24 -0
v 4 24 -1
v 4 25 -0
v 4 25 -1
v 4 26 1
v 4 26 -2
v 5 24 -0
v 5 24 -1
v 5 25 -0
v 5 25 -1
v -2 20 3
v -2 21 3
v -2 24 3
v -2 25 3
v -1 24 3
v -1 25 3
v 1 24 3
v 1 25 3
v 2 20 3
v 2 21 3
v 2 24 3
v 2 25 3
v -3 15 2
v -3 16 2
v -3 27 2
v -3 28 2
v -2 20 2
v -2 21 2
v -2 24 2
v -2 25 2
v -1 24 2
v -1 25 2
v 1 24 2
v 1 25 2
v 2 20 2
v 2 21 2
v 2 24 2
v 2 25 2
v 3 15 2
v 3 16 2
v 3 27 2
v 3 28 2
v -4 23 1
v -4 26 1
v -3 0 1
v -3 1 1
v -3 23 1
v -3 26 1
v -3 28 1
v -3 30 1
v -2 0 1
v -2 1 1
v 2 0 1
v 2 1 1
v 3 0 1
v 3 1 1
v 3 23 1
v 3 26 1
v 3 28 1
v 3 30 1
v 4 23 1
v 4 26 1
v -5 24 -0
v -5 25 -0
v -4 24 -0
v -4 25 -0
v -3 1 -0
v -3 15 -0
v -3 30 -0
v -3 31 -0
v -2 1 -0
v -2 15 -0
v 2 1 -0
v 2 15 -0
v 3 1 -0
v 3 15 -0
v 3 30 -0
v 3 31 -0
v 4 24 -0
v 4 25 -0
v 5 24 -0
v 5 25 -0
v -5 24 -1
v -5 25 -1
v -4 24 -1
v -4 25 -1
v -3 0 -1
v -3 1 -1
v -3 15 -1
v -2 0 -1
v -2 1 -1
v -2 15 -1
v 2 0 -1
v 2 1 -1
v 2 15 -1
v 3 0 -1
v 3 1 -1
v 3 15 -1
v 4 24 -1
v 4 25 -1
v 5 24 -1
v 5 25 -1
v -4 23 -2
v -4 26 -2
v -3 23 -2
v -3 26 -2
v -3 30 -2
v -3 31 -2
v 3 23 -2
v 3 26 -2
v 3 30 -2
v 3 31 -2
v 4 23 -2
v 4 26 -2
v -3 15 -3
v -3 16 -3
v -3 25 -3
v -3 29 -3
v -3 30 -3
v -2 23 -3
v -2 25 -3
v -1 21 -3
v -1 23 -3
v 1 21 -3
v 1 23 -3
v 2 23 -3
v 2 25 -3
v 3 15 -3
v 3 16 -3
v 3 25 -3
v 3 29 -3
v 3 30 -3
v -3 25 -4
v -3 29 -4
v -2 23 -4
v -2 25 -4
v -1 21 -4
v -1 23 -4
v 1 21 -4
v 1 23 -4
v 2 23 -4
v 2 25 -4
v 3 25 -4
v 3 29 -4
v -3 0 1
v -2 0 1
v 2 0 1
v 3 0 1
v -3 0 -1
v -2 0 -1
v 2 0 -1
v 3 0 -1
v -3 15 2
v 3 15 2
v -3 15 -0
v -2 15 -0
v 2 15 -0
v 3 15 -0
v -3 15 -1
v -2 15 -1
v 2 15 -1
v 3 15 -1
v -3 15 -3
v 3 15 -3
v -2 20 3
v 2 20 3
v -2 20 2
v 2 20 2
v -1 21 -3
v 1 21 -3
v -1 21 -4
v 1 21 -4
v -4 23 1
v -3 23 1
v 3 23 1
v 4 23 1
v -4 23 -2
v -3 23 -2
v 3 23 -2
v 4 23 -2
v -2 23 -3
v -1 23 -3
v 1 23 -3
v 2 23 -3
v -2 23 -4
v -1 23 -4
v 1 23 -4
v 2 23 -4
v -2 24 3
v -1 24 3
v 1 24 3
v 2 24 3
v -2 24 2
v -1 24 2
v 1 24 2
v 2 24 2
v -5 24 -0
v -4 24 -0
v 4 24 -0
v 5 24 -0
v -5 24 -1
v -4 24 -1
v 4 24 -1
v 5 24 -1
v -3 25 -3
v -2 25 -3
v 2 25 -3
v 3 25 -3
v -3 25 -4
v -2 25 -4
v 2 25 -4
v 3 25 -4
v -3 1 1
v -2 1 1
v 2 1 1
v 3 1 1
v -3 1 -0
v -2 1 -0
v 2 1 -0
v 3 1 -0
v -2 21 3
v 2 21 3
v -2 21 2
v 2 21 2
v -2 25 3
v -1 25 3
v 1 25 3
v 2 25 3
v -2 25 2
v -1 25 2
v 1 25 2
v 2 25 2
v -5 25 -0
v -4 25 -0
v 4 25 -0
v 5 25 -0
v -5 25 -1
v -4 25 -1
v 4 25 -1
v 5 25 -1
v -4 26 1
v -3 26 1
v 3 26 1
v 4 26 1
v -4 26 -2
v -3 26 -2
v 3 26 -2
v 4 26 -2
v -3 28 2
v 3 28 2
v -3 28 1
v 3 28 1
v -3 29 -3
v 3 29 -3
v -3 29 -4
v 3 29 -4
v -3 30 1
v 3 30 1
v -3 30 -0
v 3 30 -0
v -3 30 -2
v 3 30 -2
v -3 30 -3
v 3 30 -3
v -3 31 -0
v 3 31 -0
v -3 31 -2
v 3 31 -2

# faces
f 3/1/1 2/1/1 1/1/1
f 4/1/1 2/1/1 3/1/1
f 7/4/1 6/4/1 5/4/1
f 8/4/1 6/4/1 7/4/1
f 9/4/1 7/4/1 5/4/1
f 10/4/1 6/4/1 8/4/1
f 11/4/1 9/4/1 5/4/1
f 11/4/1 10/4/1 9/4/1
f 12/4/1 6/4/1 10/4/1
f 12/4/1 10/4/1 11/4/1
f 15/5/1 14/5/1 13/5/1
f 16/5/1 14/5/1 15/5/1
f 17/5/1 14/5/1 16/5/1
f 19/6/1 17/6/1 16/6/1
f 20/6/1 17/6/1 19/6/1
f 22/4/1 20/4/1 19/4/1
f 22/4/1 21/4/1 20/4/1
f 22/4/1 19/4/1 18/4/1
f 23/4/1 21/4/1 22/4/1
f 24/3/1 23/3/1 22/3/1
f 25/3/1 23/3/1 24/3/1
f 26/3/1 23/3/1 25/3/1
f 28/3/1 24/3/1 22/3/1
f 29/3/1 26/3/1 25/3/1
f 30/3/1 28/3/1 22/3/1
f 30/3/1 29/3/1 28/3/1
f 31/3/1 26/3/1 29/3/1
f 31/3/1 29/3/1 30/3/1
f 31/1/1 27/1/1 26/1/1
f 32/4/1 31/4/1 30/4/1
f 33/4/1 31/4/1 32/4/1
f 34/1/1 27/1/1 31/1/1
f 34/4/1 31/4/1 33/4/1
f 35/1/1 27/1/1 34/1/1
f 35/1/1 34/1/1 33/1/1
f 36/1/1 27/1/1 35/1/1
f 37/1/1 35/1/1 33/1/1
f 38/1/1 35/1/1 37/1/1
f 39/1/1 35/1/1 38/1/1
f 40/1/1 35/1/1 39/1/1
f 41/1/1 39/1/1 38/1/1
f 42/1/1 39/1/1 41/1/1
f 45/2/1 44/2/1 43/2/1
f 46/2/1 44/2/1 45/2/1
f 51/2/1 50/2/1 49/2/1
f 52/2/1 50/2/1 51/2/1
f 53/1/1 48/1/1 47/1/1
f 54/1/1 48/1/1 53/1/1
f 57/1/1 56/1/1 55/1/1
f 58/1/1 56/1/1 57/1/1
f 61/2/1 60/2/1 59/2/1
f 62/2/1 60/2/1 61/2/1
f 65/5/1 64/5/1 63/5/1
f 66/5/1 64/5/1 65/5/1
f 67/5/1 64/5/1 66/5/1
f 68/6/1 67/6/1 66/6/1
f 69/6/1 67/6/1 68/6/1
f 70/5/2 71/5/2 72/5/2
f 72/5/2 71/5/2 73/5/2
f 73/5/2 71/5/2 74/5/2
f 73/6/2 74/6/2 75/6/2
f 75/6/2 74/6/2 76/6/2
f 77/2/2 78/2/2 79/2/2
f 79/2/2 78/2/2 80/2/2
f 81/1/2 82/1/2 83/1/2
f 83/1/2 82/1/2 84/1/2
f 85/2/2 86/2/2 87/2/2
f 87/2/2 86/2/2 88/2/2
f 91/2/2 92/2/2 93/2/2
f 93/2/2 92/2/2 94/2/2
f 89/1/2 90/1/2 95/1/2
f 95/1/2 90/1/2 96/1/2
f 97/5/2 98/5/2 99/5/2
f 99/5/2 98/5/2 100/5/2
f 100/5/2 98/5/2 101/5/2
f 100/6/2 101/6/2 103/6/2
f 103/6/2 101/6/2 104/6/2
f 103/4/2 104/4/2 106/4/2
f 104/4/2 105/4/2 106/4/2
f 102/4/2 103/4/2 106/4/2
f 106/4/2 105/4/2 107/4/2
f 106/3/2 107/3/2 108/3/2
f 108/3/2 107/3/2 109/3/2
f 109/3/2 107/3/2 110/3/2
f 106/3/2 108/3/2 112/3/2
f 109/3/2 110/3/2 113/3/2
f 106/3/2 112/3/2 114/3/2
f 112/3/2 113/3/2 114/3/2
f 113/3/2 110/3/2 115/3/2
f 114/3/2 113/3/2 115/3/2
f 110/1/2 111/1/2 115/1/2
f 114/4/2 115/4/2 116/4/2
f 116/4/2 115/4/2 117/4/2
f 115/1/2 111/1/2 118/1/2
f 117/4/2 115/4/2 118/4/2
f 118/1/2 111/1/2 119/1/2
f 117/1/2 118/1/2 119/1/2
f 119/1/2 111/1/2 120/1/2
f 117/1/2 119/1/2 121/1/2
f 121/1/2 119/1/2 122/1/2
f 122/1/2 119/1/2 123/1/2
f 123/1/2 119/1/2 124/1/2
f 122/1/2 123/1/2 125/1/2
f 125/1/2 123/1/2 126/1/2
f 127/4/2 128/4/2 129/4/2
f 129/4/2 128/4/2 130/4/2
f 127/4/2 129/4/2 131/4/2
f 130/4/2 128/4/2 132/4/2
f 127/4/2 131/4/2 133/4/2
f 131/4/2 132/4/2 133/4/2
f 132/4/2 128/4/2 134/4/2
f 133/4/2 132/4/2 134/4/2
f 135/1/2 136/1/2 137/1/2
f 137/1/2 136/1/2 138/1/2
f 143/2/3 142/2/3 141/2/3
f 144/2/3 142/2/3 143/2/3
f 147/2/3 140/2/3 139/2/3
f 148/2/3 140/2/3 147/2/3
f 149/2/3 146/2/3 145/2/3
f 150/2/3 146/2/3 149/2/3
f 155/3/3 153/3/3 152/3/3
f 156/3/3 153/3/3 155/3/3
f 157/3/3 153/3/3 156/3/3
f 158/3/3 153/3/3 157/3/3
f 159/3/3 157/3/3 156/3/3
f 160/3/3 153/3/3 158/3/3
f 161/3/3 159/3/3 156/3/3
f 161/3/3 160/3/3 159/3/3
f 162/3/3 153/3/3 160/3/3
f 162/3/3 160/3/3 161/3/3
f 163/3/3 155/3/3 152/3/3
f 164/3/3 161/3/3 156/3/3
f 165/3/3 161/3/3 164/3/3
f 166/3/3 153/3/3 162/3/3
f 167/4/3 152/4/3 151/4/3
f 168/3/3 166/3/3 165/3/3
f 168/4/3 152/4/3 167/4/3
f 168/3/3 165/3/3 164/3/3
f 168/3/3 163/3/3 152/3/3
f 168/3/3 164/3/3 163/3/3
f 169/4/3 154/4/3 153/4/3
f 169/3/3 166/3/3 168/3/3
f 169/3/3 153/3/3 166/3/3
f 170/4/3 154/4/3 169/4/3
f 175/4/3 172/4/3 171/4/3
f 176/4/3 172/4/3 175/4/3
f 179/5/3 174/5/3 173/5/3
f 180/5/3 174/5/3 179/5/3
f 183/5/3 182/5/3 181/5/3
f 184/5/3 182/5/3 183/5/3
f 187/1/3 178/1/3 177/1/3
f 188/1/3 178/1/3 187/1/3
f 189/4/3 186/4/3 185/4/3
f 190/4/3 186/4/3 189/4/3
f 193/1/3 192/1/3 191/1/3
f 194/1/3 192/1/3 193/1/3
f 199/6/3 196/6/3 195/6/3
f 200/6/3 196/6/3 199/6/3
f 203/6/3 202/6/3 201/6/3
f 204/6/3 202/6/3 203/6/3
f 205/1/3 198/1/3 197/1/3
f 206/1/3 198/1/3 205/1/3
f 209/1/3 208/1/3 207/1/3
f 210/1/3 208/1/3 209/1/3
f 211/1/4 212/1/4 213/1/4
f 213/1/4 212/1/4 214/1/4
f 215/5/4 216/5/4 218/5/4
f 216/6/4 217/6/4 219/6/4
f 218/5/4 216/5/4 219/5/4
f 219/6/4 217/6/4 220/6/4
f 221/5/4 222/5/4 224/5/4
f 222/6/4 223/6/4 225/6/4
f 224/5/4 222/5/4 225/5/4
f 225/6/4 223/6/4 226/6/4
f 227/1/4 228/1/4 229/1/4
f 229/1/4 228/1/4 230/1/4
f 231/4/4 232/4/4 233/4/4
f 233/4/4 232/4/4 234/4/4
f 235/1/4 236/1/4 239/1/4
f 239/1/4 236/1/4 240/1/4
f 237/4/4 238/4/4 241/4/4
f 241/4/4 238/4/4 242/4/4
f 244/3/4 245/3/4 248/3/4
f 248/3/4 245/3/4 249/3/4
f 244/3/4 248/3/4 250/3/4
f 250/3/4 248/3/4 251/3/4
f 244/3/4 250/3/4 252/3/4
f 252/3/4 253/3/4 254/3/4
f 243/4/4 244/4/4 256/4/4
f 254/3/4 255/3/4 257/3/4
f 256/4/4 244/4/4 257/4/4
f 252/3/4 254/3/4 257/3/4
f 244/3/4 252/3/4 257/3/4
f 257/3/4 255/3/4 258/3/4
f 246/1/4 247/1/4 259/1/4
f 259/1/4 247/1/4 260/1/4
f 261/1/4 262/1/4 264/1/4
f 263/1/4 264/1/4 266/1/4
f 265/1/4 266/1/4 267/1/4
f 266/1/4 264/1/4 268/1/4
f 267/1/4 266/1/4 268/1/4
f 268/1/4 264/1/4 269/1/4
f 264/1/4 262/1/4 270/1/4
f 269/1/4 264/1/4 270/1/4
f 270/1/4 262/1/4 271/1/4
f 271/1/4 262/1/4 272/1/4
f 277/5/5 274/5/5 273/5/5
f 278/5/5 274/5/5 277/5/5
f 279/5/5 276/5/5 275/5/5
f 280/5/5 276/5/5 279/5/5
f 283/4/5 282/4/5 281/4/5
f 284/4/5 282/4/5 283/4/5
f 285/4/5 282/4/5 284/4/5
f 286/4/5 282/4/5 285/4/5
f 288/4/5 285/4/5 284/4/5
f 289/4/5 285/4/5 288/4/5
f 291/4/5 288/4/5 287/4/5
f 291/4/5 290/4/5 289/4/5
f 291/4/5 289/4/5 288/4/5
f 292/4/5 290/4/5 291/4/5
f 295/2/5 294/2/5 293/2/5
f 296/2/5 294/2/5 295/2/5
f 299/1/5 298/1/5 297/1/5
f 300/1/5 298/1/5 299/1/5
f 305/4/5 302/4/5 301/4/5
f 306/4/5 302/4/5 305/4/5
f 307/4/5 304/4/5 303/4/5
f 308/4/5 304/4/5 307/4/5
f 313/1/5 310/1/5 309/1/5
f 314/1/5 310/1/5 313/1/5
f 315/1/5 312/1/5 311/1/5
f 316/1/5 312/1/5 315/1/5
f 321/2/5 318/2/5 317/2/5
f 322/2/5 318/2/5 321/2/5
f 323/2/5 320/2/5 319/2/5
f 324/2/5 320/2/5 323/2/5
f 329/1/5 326/1/5 325/1/5
f 330/1/5 326/1/5 329/1/5
f 331/1/5 328/1/5 327/1/5
f 332/1/5 328/1/5 331/1/5
f 337/1/5 334/1/5 333/1/5
f 338/1/5 334/1/5 337/1/5
f 339/1/5 336/1/5 335/1/5
f 340/1/5 336/1/5 339/1/5
f 341/5/6 342/5/6 345/5/6
f 345/5/6 342/5/6 346/5/6
f 343/5/6 344/5/6 347/5/6
f 347/5/6 344/5/6 348/5/6
f 349/2/6 350/2/6 351/2/6
f 351/2/6 350/2/6 352/2/6
f 353/2/6 354/2/6 357/2/6
f 357/2/6 354/2/6 358/2/6
f 355/2/6 356/2/6 359/2/6
f 359/2/6 356/2/6 360/2/6
f 361/1/6 362/1/6 365/1/6
f 365/1/6 362/1/6 366/1/6
f 363/1/6 364/1/6 367/1/6
f 367/1/6 364/1/6 368/1/6
f 369/4/6 370/4/6 373/4/6
f 373/4/6 370/4/6 374/4/6
f 371/4/6 372/4/6 375/4/6
f 375/4/6 372/4/6 376/4/6
f 377/4/6 378/4/6 379/4/6
f 379/4/6 378/4/6 380/4/6
f 381/1/6 382/1/6 383/1/6
f 383/1/6 382/1/6 384/1/6
f 385/1/6 386/1/6 387/1/6
f 387/1/6 386/1/6 388/1/6
f 389/1/6 390/1/6 391/1/6
f 391/1/6 390/1/6 392/1/6
f 393/1/6 394/1/6 395/1/6
f 395/1/6 394/1/6 396/1/6
